<svg width="512" height="512" viewBox="0 0 512 512" fill="none" xmlns="http://www.w3.org/2000/svg">
<path d="M256 512C397.385 512 512 397.385 512 256C512 114.615 397.385 0 256 0C114.615 0 0 114.615 0 256C0 397.385 114.615 512 256 512Z" fill="#FF8E31"/>
<path d="M509.281 293.161L392.22 176.102C390.733 174.617 388.815 173.893 386.882 173.893H172.608C170.683 173.893 168.717 174.617 167.235 176.102C165.748 177.587 165.028 179.512 165.028 181.478V198.93H96.7069C93.8579 198.93 91.4919 201.298 91.4919 204.183V332.923C91.4919 334.003 91.8149 335.007 92.3729 335.852L268.207 511.693C391.439 505.897 491.85 412.995 509.281 293.161Z" fill="#ED7425"/>
<path d="M394.468 318.372C394.468 320.31 393.726 322.263 392.251 323.738C390.761 325.236 388.823 325.965 386.875 325.965H172.623C170.685 325.965 168.739 325.235 167.242 323.738C165.775 322.263 165.03 320.31 165.03 318.372V181.45C165.03 179.504 165.775 177.566 167.242 176.079C168.737 174.612 170.683 173.865 172.623 173.865H386.875C388.823 173.865 390.761 174.613 392.251 176.079C393.726 177.566 394.468 179.502 394.468 181.45V318.372V318.372Z" fill="#34495E"/>
<path d="M282.322 179.822C282.322 181.256 281.17 182.413 279.752 182.413C278.318 182.413 277.174 181.253 277.174 179.822C277.174 178.396 278.318 177.259 279.752 177.259C281.17 177.257 282.322 178.396 282.322 179.822Z" fill="#283A4D"/>
<path d="M280.804 179.83C280.804 180.416 280.325 180.89 279.752 180.89C279.168 180.89 278.697 180.416 278.697 179.83C278.697 179.254 279.171 178.793 279.752 178.793C280.328 178.793 280.804 179.254 280.804 179.83Z" fill="#5D6D7E"/>
<path d="M420.49 330.409C416.402 335.13 410.347 338.127 403.612 338.127H155.886C149.156 338.127 143.104 335.129 139.018 330.409H420.49Z" fill="#CEE2F2"/>
<path d="M420.483 330.429H139.018V327.242C139.018 326.912 139.143 326.589 139.397 326.336C139.643 326.088 139.973 325.962 140.296 325.962H419.203C419.536 325.962 419.858 326.087 420.109 326.336C420.355 326.589 420.483 326.912 420.483 327.242V330.429Z" fill="#F2F9FF"/>
<path d="M305.892 326.715C305.892 327.102 305.744 327.488 305.441 327.79C305.154 328.072 304.773 328.22 304.381 328.22H255.116C254.729 328.22 254.343 328.072 254.061 327.79C253.759 327.488 253.613 327.101 253.613 326.715V325.965H305.891V326.715H305.892Z" fill="#B8D1E6"/>
<path d="M382.515 185.549H176.973V314.01H382.515V185.549Z" fill="white"/>
<path d="M242.381 192.742H185.523V209.794H242.381V192.742Z" fill="#FF8E31"/>
<path d="M375.321 192.742H251.315V209.794H375.321V192.742Z" fill="#E1EFFA"/>
<path d="M375.316 288.922H184.161V294.539H375.316V288.922Z" fill="#E1EFFA"/>
<path d="M375.316 301.21H184.161V306.822H375.316V301.21Z" fill="#E1EFFA"/>
<path d="M241.019 249.83H184.161V282.268H241.019V249.83Z" fill="#D0E070"/>
<path d="M308.173 249.83H251.315V282.268H308.173V249.83Z" fill="#D0E070"/>
<path d="M375.322 249.83H318.464V282.268H375.322V249.83Z" fill="#D0E070"/>
<path d="M375.316 216.474H184.161V243.165H375.316V216.474Z" fill="#B8D1E6"/>
<path d="M314.01 325.965H172.621C170.675 325.965 168.73 325.223 167.245 323.738C165.786 322.253 165.018 320.308 165.018 318.362V197.069H176.973V314.035H302.08L314.01 325.965Z" fill="#2F445C"/>
<path d="M302.08 314.035H176.973V197.069H182.221C183.424 197.069 184.551 197.376 185.523 197.888V209.792H197.811L204.493 216.474H184.167V243.149H231.169L237.851 249.831H184.168V282.266H241.026V253.005L251.317 263.296V282.266H270.312L276.971 288.925H184.168V294.554H282.6L289.259 301.213H184.166V306.817H294.86L302.08 314.035Z" fill="#E2EFF9"/>
<path d="M197.811 209.792H185.523V197.888C186.009 198.17 186.47 198.477 186.88 198.835L187.52 199.501L197.811 209.792Z" fill="#E28430"/>
<path d="M231.168 243.149H184.166V216.474H204.493L231.168 243.149Z" fill="#A2C4E1"/>
<path d="M241.024 253.005V282.266H184.166V249.83H237.85L241.024 253.005Z" fill="#B8D26E"/>
<path d="M282.598 294.554H184.166V288.922H276.966L282.598 294.554Z" fill="#C7E0F6"/>
<path d="M294.861 306.816H184.166V301.21H289.254L294.861 306.816Z" fill="#C7E0F6"/>
<path d="M270.31 282.266H251.315V263.296L270.31 282.266Z" fill="#B8D26E"/>
<path d="M91.512 204.152C91.512 201.282 93.852 198.93 96.727 198.93H182.216C185.088 198.93 187.436 201.283 187.436 204.152V332.917C187.436 335.789 185.088 338.127 182.216 338.127H96.727C93.85 338.127 91.512 335.79 91.512 332.917V204.152Z" fill="#34495E"/>
<path d="M134.185 332.314C132.905 332.314 131.861 331.27 131.861 329.99V329.422C131.861 328.137 132.908 327.098 134.185 327.098H144.768C146.04 327.098 147.085 328.137 147.085 329.422V329.99C147.085 331.27 146.038 332.314 144.768 332.314H134.185Z" fill="#283A4D"/>
<path d="M139.464 208.118C138.143 208.118 137.093 207.058 137.093 205.722C137.093 204.419 138.143 203.339 139.464 203.339C140.782 203.339 141.86 204.419 141.86 205.722C141.857 207.058 140.78 208.118 139.464 208.118Z" fill="#283A4D"/>
<path d="M139.469 206.73C138.919 206.73 138.476 206.285 138.476 205.726C138.476 205.183 138.919 204.733 139.469 204.733C140.019 204.733 140.47 205.184 140.47 205.726C140.472 206.285 140.022 206.73 139.469 206.73Z" fill="#5D6D7E"/>
<path d="M181.993 212.531H96.95V321.282H181.993V212.531Z" fill="white"/>
<path d="M136.448 218.752H103.168V231.629H136.448V218.752Z" fill="#FF8E31"/>
<path d="M175.756 218.752H142.479V231.629H175.756V218.752Z" fill="#E1EFFA"/>
<path d="M175.749 301.517H103.168V305.756H175.749V301.517Z" fill="#E1EFFA"/>
<path d="M175.749 310.81H103.168V315.057H175.749V310.81Z" fill="#E1EFFA"/>
<path d="M136.448 265.344H103.168V296.476H136.448V265.344Z" fill="#D0E070"/>
<path d="M175.756 265.344H142.479V296.476H175.756V265.344Z" fill="#D0E070"/>
<path d="M175.749 236.698H103.168V260.329H175.749V236.698Z" fill="#B8D1E6"/>
</svg>
