<svg width="512" height="512" viewBox="0 0 512 512" fill="none" xmlns="http://www.w3.org/2000/svg">
<path d="M256 512C397.385 512 512 397.385 512 256C512 114.615 397.385 0 256 0C114.615 0 0 114.615 0 256C0 397.385 114.615 512 256 512Z" fill="#E1EFFA"/>
<path d="M508.841 296.184L345.047 132.408L343.06 130.424C341.199 128.983 338.918 128.14 336.384 128.14H175.634C169.587 128.14 164.682 133.081 164.682 139.084V372.917C164.682 375.536 165.616 377.988 167.181 379.893C167.644 380.397 168.11 380.904 168.661 381.368L296.136 508.846C405.355 491.648 491.615 405.394 508.841 296.184Z" fill="#BCD4E8"/>
<path d="M347.323 372.908C347.323 378.927 342.405 383.862 336.371 383.862H175.634C169.598 383.862 164.68 378.924 164.68 372.908V139.095C164.68 133.076 169.598 128.143 175.634 128.143H336.371C342.405 128.143 347.323 133.076 347.323 139.095V372.908Z" fill="#5D6D7E"/>
<path d="M327.754 280.735L316.252 269.225C327.447 255.703 334.182 238.349 334.182 219.464C334.182 176.372 299.113 141.289 256 141.289C212.892 141.289 177.818 176.371 177.818 219.464V259.257C182.4 260.263 185.859 264.349 185.859 269.226C185.859 274.128 182.4 278.222 177.818 279.225V347.329C177.818 353.586 180.255 359.458 184.671 363.869C189.09 368.288 194.957 370.717 201.198 370.717H316.465L334.183 353.012V296.252C334.183 293.441 333.656 290.605 332.514 287.865C331.382 285.11 329.731 282.729 327.754 280.735Z" fill="#34495E"/>
<path d="M329.068 219.471C329.068 259.827 296.364 292.539 256 292.539C215.644 292.539 182.938 259.827 182.938 219.471C182.938 179.118 215.645 146.398 256 146.398C296.363 146.399 329.068 179.118 329.068 219.471Z" fill="#F2F9FF"/>
<path d="M283.389 219.464C283.389 234.606 271.134 246.869 256 246.869C240.858 246.869 228.611 234.607 228.611 219.464C228.611 204.342 240.858 192.069 256 192.069C271.135 192.069 283.389 204.342 283.389 219.464Z" fill="#34495E"/>
<path d="M280.468 219.464C280.468 232.994 269.516 243.945 256 243.945C242.488 243.945 231.524 232.993 231.524 219.464C231.524 205.947 242.486 194.988 256 194.988C269.514 194.988 280.468 205.947 280.468 219.464Z" fill="#FF8E31"/>
<path d="M261.476 219.464C261.476 222.503 259.021 224.942 256 224.942C252.972 224.942 250.519 222.502 250.519 219.464C250.519 216.448 252.971 213.978 256 213.978C259.021 213.978 261.476 216.448 261.476 219.464Z" fill="#34495E"/>
<path d="M258.55 204.485C258.55 205.898 257.411 207.045 256 207.045C254.582 207.045 253.443 205.898 253.443 204.485C253.443 203.074 254.58 201.933 256 201.933C257.411 201.933 258.55 203.075 258.55 204.485Z" fill="#34495E"/>
<path d="M241.027 216.914C242.44 216.914 243.577 218.058 243.577 219.464C243.577 220.882 242.44 222.021 241.027 222.021C239.616 222.021 238.475 220.884 238.475 219.464C238.474 218.058 239.616 216.914 241.027 216.914Z" fill="#34495E"/>
<path d="M253.443 234.455C253.443 233.039 254.58 231.898 256 231.898C257.411 231.898 258.55 233.04 258.55 234.455C258.55 235.866 257.411 237.005 256 237.005C254.582 237.005 253.443 235.866 253.443 234.455Z" fill="#34495E"/>
<path d="M270.979 222.021C269.556 222.021 268.419 220.884 268.419 219.464C268.419 218.059 269.556 216.914 270.979 216.914C272.397 216.914 273.539 218.058 273.539 219.464C273.539 220.882 272.394 222.021 270.979 222.021Z" fill="#34495E"/>
<path d="M288.276 264.584C288.65 264.092 288.839 263.493 288.806 262.848C288.765 262.195 288.476 261.619 288.066 261.192L287.644 260.77C287.216 260.35 286.628 260.056 285.993 260.028C285.348 259.984 284.736 260.189 284.265 260.553L221.491 309.183C218.783 311.287 216.937 314.505 216.711 318.212C216.473 321.906 217.883 325.347 220.328 327.784L221.05 328.514C223.474 330.938 226.915 332.357 230.619 332.124C234.316 331.899 237.541 330.053 239.653 327.329L288.276 264.584Z" fill="#CEE2F2"/>
<path d="M234.447 322.13C232.235 324.35 228.633 324.35 226.411 322.13C224.184 319.91 224.184 316.309 226.411 314.094C228.631 311.874 232.232 311.874 234.447 314.094C236.672 316.308 236.672 319.91 234.447 322.13Z" fill="#34495E"/>
<path d="M230.436 336.374C220.344 336.374 212.155 328.2 212.155 318.106V292.542H182.938V347.329C182.938 352.006 184.722 356.691 188.288 360.26C191.841 363.824 196.518 365.605 201.196 365.605H256V336.375L230.436 336.374Z" fill="#5D6D7E"/>
<path d="M329.068 336.374H264.947V365.601H314.363L329.068 350.889V336.374Z" fill="#FF8E31"/>
<path d="M180.741 139.095C180.741 141.929 178.437 144.212 175.634 144.212C172.805 144.212 170.514 141.928 170.514 139.095C170.514 136.269 172.803 133.985 175.634 133.985C178.437 133.985 180.741 136.266 180.741 139.095Z" fill="#F2F9FF"/>
<path d="M341.478 139.095C341.478 141.929 339.192 144.212 336.371 144.212C333.545 144.212 331.261 141.928 331.261 139.095C331.261 136.269 333.547 133.985 336.371 133.985C339.192 133.985 341.478 136.266 341.478 139.095Z" fill="#F2F9FF"/>
<path d="M180.741 269.225C180.741 272.061 178.437 274.337 175.634 274.337C172.805 274.337 170.514 272.061 170.514 269.225C170.514 266.414 172.803 264.118 175.634 264.118C178.437 264.118 180.741 266.414 180.741 269.225Z" fill="#F2F9FF"/>
<path d="M341.478 269.225C341.478 272.061 339.192 274.337 336.371 274.337C333.545 274.337 331.261 272.061 331.261 269.225C331.261 266.414 333.547 264.118 336.371 264.118C339.192 264.118 341.478 266.414 341.478 269.225Z" fill="#F2F9FF"/>
<path d="M180.741 372.908C180.741 375.732 178.437 378.028 175.634 378.028C172.805 378.028 170.514 375.732 170.514 372.908C170.514 370.079 172.803 367.801 175.634 367.801C178.437 367.8 180.741 370.079 180.741 372.908Z" fill="#F2F9FF"/>
<path d="M336.358 378.025C339.18 378.025 341.468 375.737 341.468 372.915C341.468 370.093 339.18 367.805 336.358 367.805C333.536 367.805 331.248 370.093 331.248 372.915C331.248 375.737 333.536 378.025 336.358 378.025Z" fill="#F2F9FF"/>
</svg>
