<svg width="512" height="512" viewBox="0 0 512 512" fill="none" xmlns="http://www.w3.org/2000/svg">
<path d="M256 512C397.385 512 512 397.385 512 256C512 114.615 397.385 0 256 0C114.615 0 0 114.615 0 256C0 397.385 114.615 512 256 512Z" fill="#0575A5"/>
<path d="M504.709 316.631C445.407 257.323 393.651 205.614 393.387 205.425C392.634 204.921 391.733 204.624 390.753 204.624C389.04 204.624 387.558 205.528 386.672 206.877C386.273 206.301 301.439 121.434 300.868 121.02C300.087 120.454 299.14 120.114 298.088 120.114C295.397 120.114 293.163 122.305 293.163 125.034C293.163 126.821 294.182 128.331 295.6 129.194C295.789 129.514 296.015 129.79 296.268 130.062V156.96C296.268 156.96 270.571 131.306 270.189 130.953C269.347 130.185 268.251 129.706 267.03 129.701C266.638 129.181 258.303 120.9 258.057 120.636C257.174 119.671 255.942 119.044 254.524 119.044C251.833 119.044 249.642 121.246 249.642 123.967C249.642 125.772 250.64 127.287 252.071 128.153C252.248 128.453 252.458 128.724 252.696 128.975V141.568L238.552 154.068C238.552 154.068 204.75 120.03 204.233 119.633C203.434 119.008 202.438 118.629 201.335 118.629C198.632 118.629 196.404 120.82 196.404 123.549C196.404 124.453 196.657 125.277 197.09 125.981C197.528 126.698 215.425 144.564 216.139 144.989C216.157 145.017 216.183 145.048 216.203 145.084V176.674C215.768 176.807 215.345 177.007 214.995 177.347C214.473 177.879 214.166 178.627 214.166 179.385V189.077H211.063C210.308 189.077 209.258 189.499 208.746 190.052L191.561 207.204C191.052 207.752 190.624 208.768 190.624 209.518V212.664H180.932C180.156 212.664 179.432 212.925 178.904 213.496C178.553 213.819 178.336 214.233 178.195 214.668H158.375C158.111 214.43 157.835 214.212 157.523 214.028C156.671 212.587 155.145 211.593 153.312 211.593C150.621 211.593 148.392 213.779 148.392 216.513C148.392 217.514 148.709 218.43 149.239 219.181C149.661 219.788 164.804 234.674 164.804 234.674H163.434L156.448 241.663H124.637C124.384 241.43 124.117 241.22 123.815 241.038C122.955 239.604 121.432 238.609 119.588 238.609C116.903 238.609 114.675 240.8 114.675 243.524C114.675 244.359 114.9 245.144 115.292 245.825C115.735 246.598 146.478 277.397 146.478 277.397L131.128 292.762C130.56 292.524 129.912 292.355 129.223 292.355C126.491 292.355 124.3 294.582 124.3 297.273C124.3 298.179 124.556 299.021 124.989 299.738C125.424 300.439 206.935 381.901 207.441 382.28L206.865 382.856C206.304 382.674 205.741 382.556 205.117 382.556C202.439 382.556 200.202 384.76 200.202 387.471C200.202 388.485 200.525 389.396 201.07 390.154C201.231 390.379 252.424 441.615 315.717 504.919C408.817 482.673 482.125 409.595 504.709 316.631Z" fill="#025E90"/>
<path d="M256.392 128.522C258.179 127.785 259.451 126.036 259.451 123.97C259.451 121.249 257.257 119.047 254.531 119.047C251.838 119.047 249.649 121.249 249.649 123.97C249.649 126.036 250.914 127.784 252.701 128.522V141.57L236.233 156.126V184.3H239.927V157.778L256.393 143.232L256.392 128.522ZM254.531 126.428C253.187 126.428 252.063 125.322 252.063 123.97C252.063 122.629 253.187 121.497 254.531 121.497C255.911 121.497 256.989 122.629 256.989 123.97C256.988 125.322 255.91 126.428 254.531 126.428Z" fill="white"/>
<path d="M206.259 123.553C206.259 120.824 204.065 118.633 201.339 118.633C198.636 118.633 196.408 120.824 196.408 123.553C196.408 126.292 198.635 128.478 201.339 128.478C201.946 128.478 202.494 128.37 203.003 128.161L216.207 141.35V184.297H219.896V139.848L205.762 125.676C206.088 125.051 206.259 124.321 206.259 123.553ZM201.339 126.021C199.985 126.021 198.874 124.907 198.874 123.553C198.874 122.209 199.985 121.101 201.339 121.101C202.68 121.101 203.794 122.207 203.794 123.553C203.794 124.908 202.68 126.021 201.339 126.021Z" fill="white"/>
<path d="M296.269 184.3H299.955V129.59C301.739 128.853 303.009 127.097 303.009 125.036C303.009 122.307 300.82 120.116 298.094 120.116C295.396 120.116 293.161 122.307 293.161 125.036C293.161 127.097 294.477 128.853 296.266 129.59V184.3H296.269ZM295.631 125.033C295.631 123.648 296.747 122.575 298.096 122.575C299.471 122.575 300.554 123.648 300.554 125.033C300.554 126.382 299.471 127.493 298.096 127.493C296.748 127.496 295.631 126.382 295.631 125.033Z" fill="white"/>
<path d="M271.908 134.61C271.908 131.871 269.688 129.69 266.99 129.69C264.261 129.69 262.067 131.871 262.067 134.61C262.067 137.293 264.258 139.525 266.99 139.525C267.615 139.525 268.255 139.364 268.81 139.151L276.239 146.595V184.296H279.925V145.051L271.49 136.606C271.734 135.972 271.908 135.322 271.908 134.61ZM266.99 137.057C265.615 137.057 264.525 135.946 264.525 134.61C264.525 133.251 265.616 132.142 266.99 132.142C268.339 132.142 269.455 133.253 269.455 134.61C269.455 135.946 268.339 137.057 266.99 137.057Z" fill="white"/>
<path d="M256.269 184.3H259.968V162.005L265.334 156.637C265.846 156.839 266.381 156.942 266.99 156.942C269.688 156.942 271.908 154.761 271.908 152.022C271.908 149.339 269.688 147.107 266.99 147.107C264.261 147.107 262.067 149.342 262.067 152.022C262.067 152.803 262.241 153.535 262.566 154.167L256.268 160.503L256.269 184.3ZM266.99 149.573C268.339 149.573 269.455 150.676 269.455 152.02C269.455 153.377 268.339 154.493 266.99 154.493C265.615 154.493 264.525 153.377 264.525 152.02C264.525 150.674 265.615 149.573 266.99 149.573Z" fill="white"/>
<path d="M216.21 373.524L206.869 382.863C206.308 382.681 205.745 382.563 205.121 382.563C202.446 382.563 200.206 384.767 200.206 387.478C200.206 390.176 202.446 392.388 205.121 392.388C207.86 392.388 210.052 390.176 210.052 387.478C210.052 386.725 209.888 385.996 209.573 385.351L219.9 375.027V328.24H216.211V373.524H216.21ZM205.12 389.952C203.786 389.952 202.662 388.841 202.662 387.479C202.662 386.097 203.786 385.029 205.12 385.029C206.518 385.029 207.585 386.097 207.585 387.479C207.583 388.844 206.515 389.952 205.12 389.952Z" fill="white"/>
<path d="M276.239 355.272L261.084 370.427C260.557 370.253 259.993 370.097 259.364 370.097C256.681 370.097 254.441 372.324 254.441 375.028C254.441 377.76 256.681 379.946 259.364 379.946C262.101 379.946 264.3 377.76 264.3 375.028C264.3 374.27 264.126 373.587 263.819 372.929L279.929 356.811V328.241H276.243V355.272H276.239ZM259.364 377.48C258.033 377.48 256.906 376.412 256.906 375.028C256.906 373.681 258.032 372.555 259.364 372.555C260.762 372.555 261.834 373.679 261.834 375.028C261.834 376.412 260.762 377.48 259.364 377.48Z" fill="white"/>
<path d="M236.232 344.008L230.887 349.353C230.239 349.043 229.558 348.874 228.803 348.874C226.079 348.874 223.883 351.071 223.883 353.797C223.883 356.5 226.077 358.728 228.803 358.728C231.494 358.728 233.718 356.501 233.718 353.797C233.718 353.165 233.61 352.601 233.385 352.036L239.926 345.546V328.007H236.232V344.008ZM228.8 356.255C227.459 356.255 226.342 355.144 226.342 353.797C226.342 352.412 227.461 351.339 228.8 351.339C230.152 351.339 231.26 352.412 231.26 353.797C231.263 355.146 230.152 356.255 228.8 356.255Z" fill="white"/>
<path d="M248.02 383.885V366.958L259.968 356.367V328.24H256.269V354.703L244.321 365.281V383.887C242.501 384.637 241.229 386.388 241.229 388.451C241.229 391.134 243.456 393.374 246.144 393.374C248.883 393.374 251.075 391.134 251.075 388.451C251.08 386.386 249.812 384.635 248.02 383.885ZM246.147 390.899C244.806 390.899 243.682 389.788 243.682 388.449C243.682 387.1 244.806 385.984 246.147 385.984C247.496 385.984 248.612 387.1 248.612 388.449C248.612 389.791 247.496 390.899 246.147 390.899Z" fill="white"/>
<path d="M312.696 378.028C311.966 378.028 311.27 378.169 310.674 378.471L299.955 367.739V328.241H296.269V369.262L308.132 381.11C307.886 381.666 307.774 382.29 307.774 382.915C307.774 385.654 309.958 387.833 312.697 387.833C315.388 387.833 317.615 385.654 317.615 382.915C317.614 380.216 315.387 378.028 312.696 378.028ZM312.696 385.364C311.349 385.364 310.231 384.291 310.231 382.914C310.231 381.56 311.35 380.441 312.696 380.441C314.037 380.441 315.161 381.56 315.161 382.914C315.162 384.292 314.04 385.364 312.696 385.364Z" fill="white"/>
<path d="M382.81 226.691C383.435 226.927 384.08 227.098 384.797 227.098C387.521 227.098 389.707 224.871 389.707 222.183C389.707 219.451 387.521 217.252 384.797 217.252C382.05 217.252 379.866 219.451 379.866 222.183C379.866 222.815 380.022 223.463 380.245 224.034L369.575 234.696H330.061V238.382H371.111L382.81 226.691ZM384.799 219.717C386.133 219.717 387.249 220.797 387.249 222.182C387.249 223.526 386.133 224.64 384.799 224.64C383.445 224.64 382.334 223.526 382.334 222.182C382.333 220.797 383.442 219.717 384.799 219.717Z" fill="white"/>
<path d="M365.225 211.366H386.176C386.913 213.191 388.695 214.456 390.761 214.456C393.452 214.456 395.676 212.262 395.676 209.541C395.676 206.802 393.451 204.626 390.761 204.626C388.695 204.626 386.913 205.891 386.176 207.724H363.686H363.678L356.692 214.677H330.068V218.358H358.195L365.225 211.366ZM390.761 207.081C392.102 207.081 393.226 208.192 393.226 209.539C393.226 210.886 392.105 211.999 390.761 211.999C389.371 211.999 388.296 210.885 388.296 209.539C388.296 208.192 389.371 207.081 390.761 207.081Z" fill="white"/>
<path d="M390.17 310.077C389.607 310.077 389.026 310.218 388.527 310.387L372.857 294.725H331.828V298.419H371.329L385.803 312.852C385.465 313.52 385.247 314.206 385.247 314.995C385.247 317.724 387.472 319.91 390.17 319.91C392.902 319.91 395.101 317.724 395.101 314.995C395.1 312.305 392.904 310.077 390.17 310.077ZM390.17 317.453C388.829 317.453 387.697 316.378 387.697 314.995C387.697 313.646 388.826 312.535 390.17 312.535C391.552 312.535 392.628 313.646 392.628 314.995C392.627 316.378 391.552 317.453 390.17 317.453Z" fill="white"/>
<path d="M352.701 281.48C355.438 281.48 357.624 279.301 357.624 276.57C357.624 273.838 355.438 271.647 352.701 271.647C350.64 271.647 348.887 272.917 348.157 274.688H331.827V278.39H348.157C348.887 280.215 350.643 281.48 352.701 281.48ZM352.701 274.097C354.048 274.097 355.166 275.221 355.166 276.57C355.166 277.919 354.047 279.022 352.701 279.022C351.36 279.022 350.241 277.919 350.241 276.57C350.241 275.223 351.36 274.097 352.701 274.097Z" fill="white"/>
<path d="M392.402 268.621C390.331 268.621 388.539 269.898 387.809 271.683H367.562L350.594 254.708H331.827V258.397H349.051L366.067 275.37H387.809C388.539 277.159 390.331 278.432 392.402 278.432C395.093 278.432 397.32 276.246 397.32 273.542C397.32 270.817 395.092 268.621 392.402 268.621ZM392.402 275.968C391.012 275.968 389.937 274.9 389.937 273.544C389.937 272.162 391.012 271.086 392.402 271.086C393.743 271.086 394.862 272.161 394.862 273.544C394.862 274.9 393.746 275.968 392.402 275.968Z" fill="white"/>
<path d="M153.316 211.602C150.625 211.602 148.401 213.788 148.401 216.522C148.401 219.254 150.628 221.437 153.316 221.437C155.423 221.437 157.179 220.183 157.909 218.352H189.379V214.671H157.909C157.179 212.877 155.423 211.602 153.316 211.602ZM153.316 218.988C151.975 218.988 150.858 217.869 150.858 216.523C150.858 215.184 151.977 214.065 153.316 214.065C154.709 214.065 155.781 215.186 155.781 216.523C155.781 217.869 154.711 218.988 153.316 218.988Z" fill="white"/>
<path d="M131.131 292.772C130.563 292.534 129.915 292.365 129.226 292.365C126.494 292.365 124.303 294.592 124.303 297.283C124.303 300.015 126.494 302.214 129.226 302.214C131.919 302.214 134.149 300.018 134.149 297.283C134.149 296.635 133.988 295.975 133.76 295.414L150.735 278.393H186.844V274.689H149.194L131.131 292.772ZM129.226 299.748C127.836 299.748 126.761 298.665 126.761 297.283C126.761 295.942 127.836 294.823 129.226 294.823C130.567 294.823 131.691 295.942 131.691 297.283C131.692 298.665 130.568 299.748 129.226 299.748Z" fill="white"/>
<path d="M156.301 289.492C156.554 288.875 156.749 288.179 156.749 287.449C156.749 284.751 154.522 282.518 151.826 282.518C149.102 282.518 146.911 284.75 146.911 287.449C146.911 290.173 149.102 292.364 151.826 292.364C152.435 292.364 153.057 292.244 153.587 292.057L159.995 298.419H185.769V294.725H161.49L156.301 289.492ZM151.828 289.907C150.443 289.907 149.37 288.832 149.37 287.449C149.37 286.095 150.445 284.984 151.828 284.984C153.182 284.984 154.288 286.095 154.288 287.449C154.289 288.832 153.183 289.907 151.828 289.907Z" fill="white"/>
<path d="M164.974 238.38H186.639V234.683H163.435L156.449 241.672H124.183C123.446 239.885 121.697 238.618 119.588 238.618C116.903 238.618 114.675 240.809 114.675 243.533C114.675 246.218 116.902 248.464 119.588 248.464C121.697 248.464 123.446 247.143 124.183 245.354H157.985L164.974 238.38ZM119.588 245.993C118.244 245.993 117.133 244.882 117.133 243.533C117.133 242.143 118.244 241.068 119.588 241.068C120.981 241.068 122.053 242.143 122.053 243.533C122.053 244.884 120.98 245.993 119.588 245.993Z" fill="white"/>
<path d="M132.531 251.62C129.799 251.62 127.611 253.837 127.611 256.548C127.611 259.28 129.797 261.466 132.531 261.466C134.602 261.466 136.345 260.201 137.085 258.397H189.381V254.708H137.085C136.346 252.872 134.602 251.62 132.531 251.62ZM132.531 258.993C131.187 258.993 130.071 257.91 130.071 256.546C130.071 255.187 131.187 254.073 132.531 254.073C133.883 254.073 134.991 255.187 134.991 256.546C134.991 257.91 133.883 258.993 132.531 258.993Z" fill="white"/>
<path d="M214.172 189.082V179.39C214.172 178.632 214.479 177.887 215.001 177.352C215.577 176.794 216.314 176.523 217.041 176.523H219.069C219.842 176.523 220.564 176.794 221.099 177.352C221.631 177.884 221.936 178.617 221.936 179.39V189.082H214.172Z" fill="#FF8E31"/>
<path d="M234.194 189.082V179.39C234.194 178.632 234.504 177.887 235.034 177.352C235.564 176.794 236.283 176.523 237.062 176.523H239.092C239.868 176.523 240.551 176.794 241.122 177.352C241.649 177.884 241.954 178.632 241.954 179.39V189.082H234.194Z" fill="#FF8E31"/>
<path d="M254.226 189.082V179.39C254.226 178.617 254.49 177.887 255.061 177.352C255.588 176.794 256.318 176.523 257.083 176.523H259.113C259.848 176.523 260.58 176.794 261.112 177.352C261.675 177.884 261.941 178.617 261.941 179.39V189.082H254.226Z" fill="#FF8E31"/>
<path d="M274.204 189.082V179.39C274.204 178.617 274.519 177.887 275.039 177.352C275.607 176.794 276.301 176.523 277.069 176.523H279.099C279.864 176.523 280.609 176.794 281.134 177.352C281.661 177.884 281.971 178.632 281.971 179.39V189.082H274.204Z" fill="#FF8E31"/>
<path d="M294.228 189.082V179.39C294.228 178.617 294.543 177.887 295.07 177.352C295.59 176.794 296.327 176.523 297.1 176.523H299.13C299.895 176.523 300.582 176.794 301.158 177.352C301.685 177.884 301.995 178.617 301.995 179.39V189.082H294.228Z" fill="#FF8E31"/>
<path d="M301.996 323.991V333.727C301.996 334.508 301.686 335.186 301.159 335.757C300.583 336.277 299.897 336.599 299.131 336.599H297.101C296.328 336.599 295.591 336.289 295.071 335.757C294.544 335.186 294.229 334.508 294.229 333.727V323.991H301.996Z" fill="#FF8E31"/>
<path d="M281.974 323.991V333.727C281.974 334.508 281.664 335.186 281.137 335.757C280.612 336.277 279.867 336.599 279.102 336.599H277.072C276.304 336.599 275.61 336.276 275.042 335.757C274.522 335.186 274.207 334.508 274.207 333.727V323.991H281.974Z" fill="#FF8E31"/>
<path d="M261.942 323.991V333.727C261.942 334.508 261.676 335.186 261.113 335.757C260.581 336.277 259.848 336.599 259.114 336.599H257.084C256.319 336.599 255.589 336.276 255.062 335.757C254.489 335.186 254.227 334.508 254.227 333.727V323.991H261.942Z" fill="#FF8E31"/>
<path d="M241.951 323.991V333.727C241.951 334.508 241.646 335.186 241.119 335.757C240.548 336.289 239.865 336.599 239.089 336.599H237.059C236.283 336.599 235.564 336.276 235.024 335.757C234.504 335.186 234.192 334.5 234.192 333.727V323.991H241.951Z" fill="#FF8E31"/>
<path d="M221.932 323.991V333.727C221.932 334.508 221.63 335.186 221.095 335.757C220.563 336.289 219.838 336.599 219.065 336.599H217.037C216.31 336.599 215.573 336.289 215.012 335.757C214.48 335.186 214.167 334.508 214.167 333.727V323.991H221.932Z" fill="#FF8E31"/>
<path d="M325.535 212.669H335.271C336.044 212.669 336.725 212.93 337.301 213.501C337.828 214.033 338.143 214.758 338.143 215.523V217.515C338.143 218.291 337.828 219.028 337.301 219.548C336.725 220.124 336.044 220.39 335.271 220.39H325.535V212.669Z" fill="#FF8E31"/>
<path d="M325.535 232.645H335.271C336.044 232.645 336.725 232.955 337.301 233.487C337.828 234.048 338.143 234.744 338.143 235.515V237.548C338.143 238.321 337.828 239.051 337.301 239.583C336.725 240.095 336.044 240.412 335.271 240.412H325.535V232.645Z" fill="#FF8E31"/>
<path d="M325.535 252.677H335.271C336.044 252.677 336.738 252.994 337.301 253.509C337.828 254.039 338.143 254.774 338.143 255.542V257.58C338.143 258.335 337.828 259.029 337.293 259.605C336.737 260.14 336.044 260.434 335.271 260.434H325.535V252.677Z" fill="#FF8E31"/>
<path d="M325.535 272.666H335.271C336.044 272.666 336.725 272.976 337.293 273.503C337.828 274.064 338.143 274.809 338.143 275.538V277.568C338.143 278.328 337.828 279.058 337.293 279.59C336.725 280.161 336.044 280.432 335.271 280.432H325.535V272.666Z" fill="#FF8E31"/>
<path d="M325.535 292.695H335.271C336.044 292.695 336.725 292.997 337.293 293.532C337.828 294.057 338.143 294.786 338.143 295.554V297.589C338.143 298.357 337.828 299.087 337.301 299.606C336.725 300.146 336.044 300.448 335.271 300.448H325.535V292.695Z" fill="#FF8E31"/>
<path d="M190.625 300.449H180.933C180.157 300.449 179.433 300.147 178.905 299.607C178.337 299.087 178.019 298.358 178.019 297.59V295.555C178.019 294.787 178.336 294.057 178.905 293.533C179.432 292.998 180.154 292.696 180.933 292.696H190.625V300.449Z" fill="#FF8E31"/>
<path d="M190.625 280.433H180.933C180.157 280.433 179.433 280.162 178.905 279.583C178.337 279.058 178.019 278.329 178.019 277.555V275.538C178.019 274.808 178.336 274.063 178.905 273.503C179.432 272.976 180.154 272.658 180.933 272.658H190.625V280.433Z" fill="#FF8E31"/>
<path d="M190.625 260.431H180.933C180.157 260.431 179.433 260.137 178.905 259.602C178.337 259.026 178.019 258.332 178.019 257.564V255.542C178.019 254.774 178.336 254.039 178.905 253.509C179.432 252.992 180.154 252.677 180.933 252.677H190.625V260.431Z" fill="#FF8E31"/>
<path d="M190.625 240.415H180.933C180.157 240.415 179.433 240.098 178.905 239.586C178.337 239.054 178.019 238.321 178.019 237.551V235.518C178.019 234.75 178.336 234.054 178.905 233.49C179.432 232.958 180.154 232.648 180.933 232.648H190.625V240.415Z" fill="#FF8E31"/>
<path d="M190.625 220.39H180.933C180.157 220.39 179.433 220.124 178.905 219.548C178.337 219.028 178.019 218.291 178.019 217.515V215.523C178.019 214.758 178.336 214.033 178.905 213.501C179.432 212.928 180.154 212.669 180.933 212.669H190.625V220.39Z" fill="#FF8E31"/>
<path d="M324.595 207.209L307.415 190.057C306.903 189.501 305.843 189.082 305.093 189.082H211.067C210.312 189.082 209.262 189.504 208.75 190.057L191.565 207.209C191.056 207.757 190.628 208.773 190.628 209.523V303.595C190.628 304.312 191.056 305.364 191.565 305.871L208.75 323.059C209.262 323.579 210.312 323.991 211.067 323.991H305.093C305.843 323.991 306.903 323.579 307.415 323.059L324.595 305.871C325.115 305.367 325.535 304.315 325.535 303.595V209.523C325.535 208.773 325.115 207.757 324.595 207.209Z" fill="#283A4D"/>
<path d="M318.807 302.129L303.672 317.263H212.493L197.394 302.129V210.941L212.493 195.85H303.672L318.807 210.941V302.129Z" fill="#A6B83D"/>
<path d="M299.313 203.648H216.855L205.146 215.306V297.807L216.855 309.468H299.313L311.012 297.807V215.306L299.313 203.648Z" fill="#D0E070"/>
<path d="M239.076 246.333V245.076C239.076 244.648 239.163 244.375 239.35 244.144C239.498 243.985 239.693 243.868 239.99 243.868C240.266 243.868 240.469 243.988 240.658 244.144C240.806 244.372 240.876 244.646 240.876 245.076V250.124C240.876 250.557 240.807 250.856 240.658 251.061C240.469 251.225 240.269 251.353 239.99 251.353C239.724 251.353 239.539 251.225 239.394 251.079C239.205 250.925 239.115 250.631 239.079 250.244C239.02 249.036 238.347 247.932 237.118 247.024C235.454 245.757 233.539 245.096 231.422 245.096C230.045 245.096 228.731 245.413 227.508 246.046C226.556 246.502 225.854 247.026 225.278 247.682C224.354 248.785 223.586 250.014 223.038 251.417C222.641 252.408 222.418 253.542 222.418 254.806V257.991C222.418 260.653 223.424 263.029 225.382 265.008C227.302 267.018 229.593 267.978 232.166 267.978C233.717 267.978 235.095 267.635 236.331 266.995C237.56 266.306 238.75 265.259 239.905 263.905C240.164 263.598 240.414 263.462 240.727 263.462C240.993 263.462 241.183 263.518 241.323 263.715C241.507 263.856 241.576 264.076 241.576 264.299C241.576 264.637 241.264 265.136 240.667 265.817C239.484 267.133 238.166 268.108 236.679 268.794C235.23 269.485 233.72 269.8 232.202 269.8C230.896 269.8 229.586 269.554 228.206 269.063C227.195 268.671 226.345 268.213 225.649 267.673C225.004 267.169 224.174 266.311 223.163 265.08C222.2 263.838 221.512 262.699 221.143 261.683C220.779 260.615 220.618 259.469 220.618 258.217V254.531C220.618 252.754 221.089 250.967 222.072 249.078C223.017 247.253 224.32 245.806 225.973 244.818C227.627 243.799 229.411 243.308 231.357 243.308C234.34 243.308 236.941 244.347 239.076 246.333ZM253.65 258.757V267.256H259.848C260.278 267.256 260.593 267.376 260.803 267.53C260.98 267.684 261.051 267.914 261.051 268.198C261.051 268.428 260.982 268.669 260.803 268.823C260.593 269.025 260.278 269.102 259.848 269.102H249.421C248.986 269.102 248.666 269.025 248.502 268.823C248.29 268.667 248.21 268.429 248.21 268.198C248.21 267.916 248.292 267.683 248.502 267.53C248.666 267.374 248.986 267.256 249.421 267.256H251.85V245.693H249.421C248.986 245.693 248.666 245.624 248.502 245.44C248.29 245.284 248.21 245.041 248.21 244.8C248.21 244.516 248.292 244.273 248.502 244.127C248.666 243.971 248.986 243.866 249.421 243.866H259.955C262.433 243.866 264.455 244.611 265.999 246.078C267.578 247.524 268.367 249.281 268.367 251.216C268.367 252.391 268.134 253.438 267.602 254.38C267.103 255.294 266.499 256.034 265.774 256.559C264.678 257.373 263.557 257.97 262.446 258.351C261.609 258.597 260.557 258.758 259.315 258.758L253.65 258.757ZM253.65 256.932H259.415C260.782 256.932 262.031 256.661 263.204 256.046C264.348 255.457 265.206 254.725 265.769 253.867C266.294 253.004 266.57 252.093 266.57 251.215C266.57 249.804 265.945 248.547 264.722 247.39C263.498 246.253 261.983 245.69 260.099 245.69H253.648V256.931H253.65V256.932ZM292.836 245.696V260.833C292.836 263.36 291.95 265.487 290.258 267.207C288.574 268.922 286.531 269.8 284.122 269.8C282.514 269.8 281.101 269.454 279.852 268.74C278.595 268.039 277.52 266.997 276.649 265.53C275.786 264.14 275.343 262.537 275.343 260.832V245.695H273.81C273.375 245.695 273.109 245.626 272.891 245.442C272.73 245.286 272.604 245.043 272.604 244.802C272.604 244.518 272.732 244.275 272.914 244.103C273.109 243.967 273.377 243.867 273.813 243.867H280.52C280.948 243.867 281.221 243.972 281.426 244.128C281.603 244.276 281.682 244.517 281.682 244.801C281.682 245.042 281.605 245.285 281.426 245.441C281.224 245.623 280.947 245.694 280.52 245.694H277.151V260.831C277.151 262.789 277.84 264.517 279.194 265.9C280.584 267.277 282.199 267.979 284.048 267.979C285.244 267.979 286.352 267.692 287.307 267.167C288.318 266.632 289.173 265.805 289.885 264.645C290.635 263.508 291.006 262.231 291.006 260.833V245.696H287.67C287.24 245.696 286.917 245.627 286.759 245.443C286.554 245.287 286.465 245.044 286.465 244.803C286.465 244.519 286.555 244.276 286.759 244.13C286.92 243.974 287.24 243.869 287.67 243.869H294.341C294.769 243.869 295.083 243.974 295.288 244.13C295.462 244.278 295.549 244.519 295.549 244.803C295.549 245.044 295.465 245.287 295.288 245.443C295.083 245.625 294.768 245.696 294.341 245.696H292.836V245.696Z" fill="white"/>
</svg>
