<svg width="512" height="512" viewBox="0 0 512 512" fill="none" xmlns="http://www.w3.org/2000/svg">
<path d="M256 512C397.385 512 512 397.385 512 256C512 114.615 397.385 0 256 0C114.615 0 0 114.615 0 256C0 397.385 114.615 512 256 512Z" fill="#FF8E31"/>
<path d="M492.539 353.974L333.837 195.267L327.944 189.374C313.887 176.763 295.337 169.048 274.924 169.048C237.95 169.048 206.872 194.351 198.121 228.586C194.089 227.716 189.947 227.26 185.631 227.26C166.124 227.26 148.915 236.883 138.412 251.693H108.409C107.423 251.693 106.548 252.525 106.548 253.523V257.463H100.404V288.293L112.692 300.576H108.412C107.426 300.576 106.551 301.405 106.551 302.44V306.38H100.407V337.167L274.5 511.265C373.151 504.21 456.325 441.321 492.539 353.974Z" fill="#ED7425"/>
<path d="M364.006 247.788C360.629 247.788 357.33 248.154 354.145 248.827C354.145 248.638 354.16 248.484 354.16 248.302C354.16 204.516 318.673 169.039 274.902 169.039C237.933 169.039 206.878 194.355 198.12 228.582C194.103 227.712 189.923 227.23 185.645 227.23C153.683 227.23 127.769 253.132 127.769 285.101C127.769 317.057 153.686 342.96 185.645 342.96H364.003C390.287 342.96 411.593 321.666 411.593 295.377C411.594 269.089 390.29 247.788 364.006 247.788Z" fill="white"/>
<path d="M261.12 257.469L260.401 258.183L259.661 257.464L254.421 252.201C254.091 251.878 253.615 251.692 253.09 251.692H209.452L205.146 255.995L187.428 273.728L246.078 342.963H346.63L261.12 257.469Z" fill="#E1EFFA"/>
<path d="M247.116 294.067H114.406V300.557H247.116V294.067Z" fill="#283A4D"/>
<path d="M254.961 292.216C254.961 293.24 254.129 294.072 253.115 294.072H108.408C107.397 294.072 106.562 293.243 106.562 292.216V253.519C106.562 252.498 107.397 251.668 108.408 251.668H253.112C254.126 251.668 254.958 252.497 254.958 253.519V292.216H254.961Z" fill="#5D6D7E"/>
<path d="M250.624 255.974H110.874V289.743H250.624V255.974Z" fill="#CEE2F2"/>
<path d="M241.252 272.855C241.252 275.013 239.511 276.751 237.361 276.751C235.213 276.751 233.47 275.01 233.47 272.855C233.47 270.72 235.211 268.977 237.361 268.977C239.511 268.977 241.252 270.72 241.252 272.855Z" fill="#283A4D"/>
<path d="M129.009 264.499H125.594V267.906H129.009V264.499Z" fill="#283A4D"/>
<path d="M139.556 264.499H136.141V267.906H139.556V264.499Z" fill="#283A4D"/>
<path d="M150.108 264.499H146.688V267.906H150.108V264.499Z" fill="#283A4D"/>
<path d="M160.655 264.499H157.235V267.906H160.655V264.499Z" fill="#283A4D"/>
<path d="M171.182 264.499H167.782V267.906H171.182V264.499Z" fill="#283A4D"/>
<path d="M129.009 277.837H125.594V281.249H129.009V277.837Z" fill="#283A4D"/>
<path d="M139.556 277.837H136.141V281.249H139.556V277.837Z" fill="#283A4D"/>
<path d="M150.108 277.837H146.688V281.249H150.108V277.837Z" fill="#283A4D"/>
<path d="M160.655 277.837H157.235V281.249H160.655V277.837Z" fill="#283A4D"/>
<path d="M171.182 277.837H167.782V281.249H171.182V277.837Z" fill="#283A4D"/>
<path d="M134.132 271.155H130.714V274.575H134.132V271.155Z" fill="#283A4D"/>
<path d="M144.689 271.155H141.261V274.575H144.689V271.155Z" fill="#283A4D"/>
<path d="M155.228 271.155H151.808V274.575H155.228V271.155Z" fill="#283A4D"/>
<path d="M165.757 271.155H162.355V274.575H165.757V271.155Z" fill="#283A4D"/>
<path d="M176.289 271.155H172.877V274.575H176.289V271.155Z" fill="#283A4D"/>
<path d="M219.474 271.155H190.285V274.575H219.474V271.155Z" fill="#283A4D"/>
<path d="M261.109 257.459H254.95V288.256H261.109V257.459Z" fill="#283A4D"/>
<path d="M259.013 260.523C259.013 261.05 258.575 261.493 258.045 261.493C257.507 261.493 257.062 261.05 257.062 260.523C257.062 259.983 257.507 259.537 258.045 259.537C258.575 259.538 259.013 259.983 259.013 260.523Z" fill="#B8D1E6"/>
<path d="M259.013 285.215C259.013 285.758 258.575 286.193 258.045 286.193C257.507 286.193 257.062 285.758 257.062 285.215C257.062 284.683 257.507 284.24 258.045 284.24C258.575 284.239 259.013 284.682 259.013 285.215Z" fill="#B8D1E6"/>
<path d="M106.562 257.459H100.403V288.256H106.562V257.459Z" fill="#283A4D"/>
<path d="M104.463 260.523C104.463 261.05 104.02 261.493 103.483 261.493C102.946 261.493 102.51 261.05 102.51 260.523C102.51 259.983 102.945 259.537 103.483 259.537C104.021 259.537 104.463 259.983 104.463 260.523Z" fill="#B8D1E6"/>
<path d="M104.463 285.215C104.463 285.758 104.02 286.193 103.483 286.193C102.946 286.193 102.51 285.758 102.51 285.215C102.51 284.683 102.945 284.24 103.483 284.24C104.021 284.24 104.463 284.682 104.463 285.215Z" fill="#B8D1E6"/>
<path d="M254.961 341.12C254.961 342.134 254.129 342.961 253.115 342.961H108.408C107.397 342.961 106.562 342.134 106.562 341.12V302.423C106.562 301.399 107.397 300.562 108.408 300.562H253.112C254.126 300.562 254.958 301.397 254.958 302.423V341.12H254.961Z" fill="#5D6D7E"/>
<path d="M250.624 304.87H110.874V338.644H250.624V304.87Z" fill="#CEE2F2"/>
<path d="M237.363 325.657C239.512 325.657 241.254 323.915 241.254 321.766C241.254 319.617 239.512 317.875 237.363 317.875C235.214 317.875 233.472 319.617 233.472 321.766C233.472 323.915 235.214 325.657 237.363 325.657Z" fill="#283A4D"/>
<path d="M129.009 313.395H125.594V316.807H129.009V313.395Z" fill="#283A4D"/>
<path d="M139.556 313.395H136.141V316.807H139.556V313.395Z" fill="#283A4D"/>
<path d="M150.108 313.395H146.688V316.807H150.108V313.395Z" fill="#283A4D"/>
<path d="M160.655 313.395H157.235V316.807H160.655V313.395Z" fill="#283A4D"/>
<path d="M171.182 313.395H167.782V316.807H171.182V313.395Z" fill="#283A4D"/>
<path d="M129.009 326.733H125.594V330.145H129.009V326.733Z" fill="#283A4D"/>
<path d="M139.556 326.733H136.141V330.145H139.556V326.733Z" fill="#283A4D"/>
<path d="M150.108 326.733H146.688V330.145H150.108V326.733Z" fill="#283A4D"/>
<path d="M160.655 326.733H157.235V330.145H160.655V326.733Z" fill="#283A4D"/>
<path d="M171.182 326.733H167.782V330.145H171.182V326.733Z" fill="#283A4D"/>
<path d="M134.132 320.051H130.714V323.463H134.132V320.051Z" fill="#283A4D"/>
<path d="M144.689 320.051H141.261V323.463H144.689V320.051Z" fill="#283A4D"/>
<path d="M155.228 320.051H151.808V323.463H155.228V320.051Z" fill="#283A4D"/>
<path d="M165.757 320.051H162.355V323.463H165.757V320.051Z" fill="#283A4D"/>
<path d="M176.289 320.051H172.877V323.463H176.289V320.051Z" fill="#283A4D"/>
<path d="M219.474 320.051H190.285V323.463H219.474V320.051Z" fill="#283A4D"/>
<path d="M261.109 306.355H254.95V337.152H261.109V306.355Z" fill="#283A4D"/>
<path d="M259.013 309.425C259.013 309.957 258.575 310.395 258.045 310.395C257.507 310.395 257.062 309.957 257.062 309.425C257.062 308.869 257.507 308.442 258.045 308.442C258.575 308.442 259.013 308.869 259.013 309.425Z" fill="#B8D1E6"/>
<path d="M259.013 334.118C259.013 334.645 258.575 335.088 258.045 335.088C257.507 335.088 257.062 334.645 257.062 334.118C257.062 333.586 257.507 333.143 258.045 333.143C258.575 333.143 259.013 333.586 259.013 334.118Z" fill="#B8D1E6"/>
<path d="M106.562 306.355H100.403V337.152H106.562V306.355Z" fill="#283A4D"/>
<path d="M104.463 309.425C104.463 309.957 104.02 310.395 103.483 310.395C102.946 310.395 102.51 309.957 102.51 309.425C102.51 308.869 102.945 308.442 103.483 308.442C104.021 308.442 104.463 308.869 104.463 309.425Z" fill="#B8D1E6"/>
<path d="M104.463 334.118C104.463 334.645 104.02 335.088 103.483 335.088C102.946 335.088 102.51 334.645 102.51 334.118C102.51 333.586 102.945 333.143 103.483 333.143C104.021 333.143 104.463 333.586 104.463 334.118Z" fill="#B8D1E6"/>
</svg>
