<svg width="512" height="512" viewBox="0 0 512 512" fill="none" xmlns="http://www.w3.org/2000/svg">
<path d="M256 512C397.385 512 512 397.385 512 256C512 114.615 397.385 0 256 0C114.615 0 0 114.615 0 256C0 397.385 114.615 512 256 512Z" fill="#34495E"/>
<path d="M293.484 509.24C410.092 492.124 501.087 396.405 511.028 277.611L369.748 136.338L368.65 137.439L367.562 136.356L360.637 129.431L359.697 128.489C359.31 128.271 358.875 128.143 358.404 128.143H153.582C152.164 128.143 150.963 129.303 150.963 130.762V136.353H142.233V179.942L159.638 197.347H153.581C152.163 197.347 150.962 198.509 150.962 199.966V205.56H142.232V249.147L159.637 266.555H153.58C152.162 266.555 150.961 267.758 150.961 269.174V274.757H142.231V318.4L195.054 371.22L162.063 377.822L293.484 509.24Z" fill="#203549"/>
<path d="M260.521 335.795H251.469V365.806H260.521V335.795Z" fill="#CEE2F2"/>
<path d="M349.927 368.768H162.074V377.812H349.927V368.768Z" fill="#CEE2F2"/>
<path d="M266.552 362.726H245.427V383.851H266.552V362.726Z" fill="#5D6D7E"/>
<path d="M349.927 188.16H162.074V335.798H349.927V188.16Z" fill="#5D6D7E"/>
<path d="M361.024 185.539C361.024 186.975 359.844 188.153 358.41 188.153H153.582C152.148 188.153 150.963 186.978 150.963 185.539V130.747C150.963 129.311 152.148 128.131 153.582 128.131H358.41C359.846 128.131 361.024 129.311 361.024 130.747V185.539Z" fill="#CEE2F2"/>
<path d="M354.918 134.246H157.056V182.049H354.918V134.246Z" fill="#F2F9FF"/>
<path d="M341.619 158.136C341.619 161.18 339.154 163.645 336.118 163.645C333.082 163.645 330.611 161.18 330.611 158.136C330.611 155.102 333.081 152.635 336.118 152.635C339.155 152.635 341.619 155.103 341.619 158.136Z" fill="#5D6D7E"/>
<path d="M182.758 146.278H177.92V151.106H182.758V146.278Z" fill="#5D6D7E"/>
<path d="M197.671 146.278H192.845V151.106H197.671V146.278Z" fill="#5D6D7E"/>
<path d="M212.616 146.278H207.77V151.106H212.616V146.278Z" fill="#5D6D7E"/>
<path d="M227.518 146.278H222.674V151.106H227.518V146.278Z" fill="#5D6D7E"/>
<path d="M242.447 146.278H237.619V151.106H242.447V146.278Z" fill="#5D6D7E"/>
<path d="M182.758 165.171H177.92V170.012H182.758V165.171Z" fill="#5D6D7E"/>
<path d="M197.671 165.171H192.845V170.012H197.671V165.171Z" fill="#5D6D7E"/>
<path d="M212.616 165.171H207.77V170.012H212.616V165.171Z" fill="#5D6D7E"/>
<path d="M227.518 165.171H222.674V170.012H227.518V165.171Z" fill="#5D6D7E"/>
<path d="M242.447 165.171H237.619V170.012H242.447V165.171Z" fill="#5D6D7E"/>
<path d="M190.003 155.72H185.165V160.564H190.003V155.72Z" fill="#5D6D7E"/>
<path d="M204.9 155.72H200.064V160.564H204.9V155.72Z" fill="#5D6D7E"/>
<path d="M219.838 155.72H214.994V160.564H219.838V155.72Z" fill="#5D6D7E"/>
<path d="M234.772 155.72H229.939V160.564H234.772V155.72Z" fill="#5D6D7E"/>
<path d="M249.669 155.72H244.838V160.564H249.669V155.72Z" fill="#5D6D7E"/>
<path d="M310.809 155.72H269.491V160.564H310.809V155.72Z" fill="#5D6D7E"/>
<path d="M369.764 136.346H361.037V179.943H369.764V136.346Z" fill="#5D6D7E"/>
<path d="M366.771 140.654C366.771 141.419 366.144 142.039 365.383 142.039C364.635 142.039 364.008 141.419 364.008 140.654C364.008 139.899 364.635 139.277 365.383 139.277C366.141 139.277 366.771 139.899 366.771 140.654Z" fill="#F2F9FF"/>
<path d="M366.771 175.619C366.771 176.377 366.144 176.999 365.383 176.999C364.635 176.999 364.008 176.377 364.008 175.619C364.008 174.856 364.635 174.244 365.383 174.244C366.141 174.244 366.771 174.856 366.771 175.619Z" fill="#F2F9FF"/>
<path d="M150.951 136.346H142.234V179.943H150.951V136.346Z" fill="#5D6D7E"/>
<path d="M147.991 140.654C147.991 141.419 147.366 142.039 146.603 142.039C145.838 142.039 145.223 141.419 145.223 140.654C145.223 139.899 145.837 139.277 146.603 139.277C147.366 139.277 147.991 139.899 147.991 140.654Z" fill="#F2F9FF"/>
<path d="M146.611 177.001C147.376 177.001 147.996 176.381 147.996 175.616C147.996 174.851 147.376 174.231 146.611 174.231C145.846 174.231 145.226 174.851 145.226 175.616C145.226 176.381 145.846 177.001 146.611 177.001Z" fill="#F2F9FF"/>
<path d="M361.024 254.751C361.024 256.192 359.844 257.365 358.41 257.365H153.582C152.148 257.365 150.963 256.193 150.963 254.751V199.972C150.963 198.526 152.148 197.353 153.582 197.353H358.41C359.846 197.353 361.024 198.525 361.024 199.972V254.751Z" fill="#CEE2F2"/>
<path d="M354.918 203.443H157.056V251.246H354.918V203.443Z" fill="#F2F9FF"/>
<path d="M336.102 232.858C339.142 232.858 341.606 230.394 341.606 227.354C341.606 224.314 339.142 221.85 336.102 221.85C333.062 221.85 330.598 224.314 330.598 227.354C330.598 230.394 333.062 232.858 336.102 232.858Z" fill="#5D6D7E"/>
<path d="M182.758 215.501H177.92V220.339H182.758V215.501Z" fill="#5D6D7E"/>
<path d="M197.671 215.501H192.845V220.339H197.671V215.501Z" fill="#5D6D7E"/>
<path d="M212.616 215.501H207.77V220.339H212.616V215.501Z" fill="#5D6D7E"/>
<path d="M227.518 215.501H222.674V220.339H227.518V215.501Z" fill="#5D6D7E"/>
<path d="M242.447 215.501H237.619V220.339H242.447V215.501Z" fill="#5D6D7E"/>
<path d="M182.758 234.368H177.92V239.206H182.758V234.368Z" fill="#5D6D7E"/>
<path d="M197.671 234.368H192.845V239.206H197.671V234.368Z" fill="#5D6D7E"/>
<path d="M212.616 234.368H207.77V239.206H212.616V234.368Z" fill="#5D6D7E"/>
<path d="M227.518 234.368H222.674V239.206H227.518V234.368Z" fill="#5D6D7E"/>
<path d="M242.447 234.368H237.619V239.206H242.447V234.368Z" fill="#5D6D7E"/>
<path d="M190.003 224.947H185.165V229.783H190.003V224.947Z" fill="#5D6D7E"/>
<path d="M204.9 224.947H200.064V229.783H204.9V224.947Z" fill="#5D6D7E"/>
<path d="M219.838 224.947H214.994V229.783H219.838V224.947Z" fill="#5D6D7E"/>
<path d="M234.772 224.947H229.939V229.783H234.772V224.947Z" fill="#5D6D7E"/>
<path d="M249.669 224.947H244.838V229.783H249.669V224.947Z" fill="#5D6D7E"/>
<path d="M310.809 224.947H269.491V229.783H310.809V224.947Z" fill="#5D6D7E"/>
<path d="M369.764 205.568H361.037V249.165H369.764V205.568Z" fill="#5D6D7E"/>
<path d="M366.771 209.876C366.771 210.634 366.144 211.253 365.383 211.253C364.635 211.253 364.008 210.633 364.008 209.876C364.008 209.113 364.635 208.488 365.383 208.488C366.141 208.489 366.771 209.116 366.771 209.876Z" fill="#F2F9FF"/>
<path d="M366.771 244.836C366.771 245.594 366.144 246.221 365.383 246.221C364.635 246.221 364.008 245.596 364.008 244.836C364.008 244.076 364.635 243.459 365.383 243.459C366.141 243.459 366.771 244.076 366.771 244.836Z" fill="#F2F9FF"/>
<path d="M150.951 205.568H142.234V249.165H150.951V205.568Z" fill="#5D6D7E"/>
<path d="M146.611 211.261C147.376 211.261 147.996 210.641 147.996 209.876C147.996 209.111 147.376 208.491 146.611 208.491C145.846 208.491 145.226 209.111 145.226 209.876C145.226 210.641 145.846 211.261 146.611 211.261Z" fill="#F2F9FF"/>
<path d="M146.611 246.223C147.376 246.223 147.996 245.603 147.996 244.838C147.996 244.073 147.376 243.453 146.611 243.453C145.846 243.453 145.226 244.073 145.226 244.838C145.226 245.603 145.846 246.223 146.611 246.223Z" fill="#F2F9FF"/>
<path d="M361.024 323.971C361.024 325.397 359.844 326.577 358.41 326.577H153.582C152.148 326.577 150.963 325.397 150.963 323.971V269.184C150.963 267.75 152.148 266.565 153.582 266.565H358.41C359.846 266.565 361.024 267.753 361.024 269.184V323.971Z" fill="#CEE2F2"/>
<path d="M354.918 272.666H157.056V320.489H354.918V272.666Z" fill="#F2F9FF"/>
<path d="M341.619 296.573C341.619 299.609 339.154 302.072 336.118 302.072C333.082 302.072 330.611 299.607 330.611 296.573C330.611 293.527 333.081 291.074 336.118 291.074C339.155 291.074 341.619 293.524 341.619 296.573Z" fill="#5D6D7E"/>
<path d="M182.758 284.723H177.92V289.556H182.758V284.723Z" fill="#5D6D7E"/>
<path d="M197.671 284.723H192.845V289.556H197.671V284.723Z" fill="#5D6D7E"/>
<path d="M212.616 284.723H207.77V289.556H212.616V284.723Z" fill="#5D6D7E"/>
<path d="M227.518 284.723H222.674V289.556H227.518V284.723Z" fill="#5D6D7E"/>
<path d="M242.447 284.723H237.619V289.556H242.447V284.723Z" fill="#5D6D7E"/>
<path d="M182.758 303.59H177.92V308.439H182.758V303.59Z" fill="#5D6D7E"/>
<path d="M197.671 303.59H192.845V308.439H197.671V303.59Z" fill="#5D6D7E"/>
<path d="M212.616 303.59H207.77V308.439H212.616V303.59Z" fill="#5D6D7E"/>
<path d="M227.518 303.59H222.674V308.439H227.518V303.59Z" fill="#5D6D7E"/>
<path d="M242.447 303.59H237.619V308.439H242.447V303.59Z" fill="#5D6D7E"/>
<path d="M190.003 294.17H185.165V298.993H190.003V294.17Z" fill="#5D6D7E"/>
<path d="M204.9 294.17H200.064V298.993H204.9V294.17Z" fill="#5D6D7E"/>
<path d="M219.838 294.17H214.994V298.993H219.838V294.17Z" fill="#5D6D7E"/>
<path d="M234.772 294.17H229.939V298.993H234.772V294.17Z" fill="#5D6D7E"/>
<path d="M249.669 294.17H244.838V298.993H249.669V294.17Z" fill="#5D6D7E"/>
<path d="M310.809 294.17H269.491V298.993H310.809V294.17Z" fill="#5D6D7E"/>
<path d="M369.764 274.765H361.037V318.387H369.764V274.765Z" fill="#5D6D7E"/>
<path d="M366.771 279.094C366.771 279.852 366.144 280.469 365.383 280.469C364.635 280.469 364.008 279.852 364.008 279.094C364.008 278.326 364.635 277.717 365.383 277.717C366.141 277.714 366.771 278.326 366.771 279.094Z" fill="#F2F9FF"/>
<path d="M366.771 314.053C366.771 314.813 366.144 315.438 365.383 315.438C364.635 315.438 364.008 314.813 364.008 314.053C364.008 313.288 364.635 312.678 365.383 312.678C366.141 312.678 366.771 313.288 366.771 314.053Z" fill="#F2F9FF"/>
<path d="M150.951 274.765H142.234V318.387H150.951V274.765Z" fill="#5D6D7E"/>
<path d="M147.991 279.094C147.991 279.852 147.366 280.469 146.603 280.469C145.838 280.469 145.223 279.852 145.223 279.094C145.223 278.326 145.837 277.717 146.603 277.717C147.366 277.714 147.991 278.326 147.991 279.094Z" fill="#F2F9FF"/>
<path d="M146.611 315.446C147.376 315.446 147.996 314.826 147.996 314.061C147.996 313.296 147.376 312.676 146.611 312.676C145.846 312.676 145.226 313.296 145.226 314.061C145.226 314.826 145.846 315.446 146.611 315.446Z" fill="#F2F9FF"/>
</svg>
