<svg width="512" height="512" viewBox="0 0 512 512" fill="none" xmlns="http://www.w3.org/2000/svg">
<path d="M256 512C397.385 512 512 397.385 512 256C512 114.615 397.385 0 256 0C114.615 0 0 114.615 0 256C0 397.385 114.615 512 256 512Z" fill="#FF8E31"/>
<path d="M498.46 338.115L314.222 153.869L305.8 145.454C293.067 134.684 276.621 128.192 258.67 128.192C218.378 128.192 185.643 160.878 185.643 201.213V232.709H176.028C172.956 232.709 170.478 235.185 170.478 238.259V261.847H165.094V277.486L170.478 282.867V300.431H165.094V316.029L170.478 321.41V338.974H165.094V354.61L170.478 359.994V378.244C170.478 379.57 170.946 380.76 171.717 381.705L172.695 382.688C172.785 382.732 172.826 382.772 172.91 382.86L298.465 508.423C392.2 492.769 468.634 426.214 498.46 338.115Z" fill="#ED7425"/>
<path d="M338.073 268.083H179.302V348.383H338.073V268.083Z" fill="#283A4D"/>
<path d="M170.473 262.533C170.473 265.592 172.979 268.096 176.028 268.096H341.353C344.415 268.096 346.901 265.592 346.901 262.533V238.254C346.901 235.195 344.415 232.699 341.353 232.699H176.028C172.982 232.699 170.473 235.195 170.473 238.254V262.533V262.533Z" fill="#0684BA"/>
<path d="M170.473 301.094C170.473 304.153 172.979 306.662 176.028 306.662H341.353C344.415 306.662 346.901 304.156 346.901 301.094V276.818C346.901 273.764 344.415 271.255 341.353 271.255H176.028C172.982 271.255 170.473 273.761 170.473 276.818V301.094V301.094Z" fill="#0684BA"/>
<path d="M170.473 339.661C170.473 342.728 172.979 345.226 176.028 345.226H341.353C344.415 345.226 346.901 342.727 346.901 339.661V315.387C346.901 312.328 344.415 309.827 341.353 309.827H176.028C172.982 309.827 170.473 312.328 170.473 315.387V339.661V339.661Z" fill="#0684BA"/>
<path d="M170.473 378.235C170.473 381.292 172.979 383.793 176.028 383.793H341.353C344.415 383.793 346.901 381.292 346.901 378.235V353.948C346.901 350.899 344.415 348.395 341.353 348.395H176.028C172.982 348.395 170.473 350.899 170.473 353.948V378.235V378.235Z" fill="#0684BA"/>
<path d="M331.702 201.208V232.696H320.008V203.067C320.008 169.193 292.555 141.737 258.696 141.737C224.827 141.737 197.374 169.19 197.374 203.067V232.699H185.688V201.211C185.688 160.888 218.382 128.21 258.697 128.21C299.003 128.207 331.702 160.886 331.702 201.208Z" fill="#F2F9FF"/>
<path d="M320.008 203.067V232.699H308.324V201.211C308.324 173.839 286.06 151.567 258.696 151.567C231.324 151.567 209.052 173.836 209.052 201.211V232.699H197.371V203.067C197.371 169.193 224.824 141.737 258.693 141.737C292.554 141.737 320.008 169.19 320.008 203.067Z" fill="#E1EFFA"/>
<path d="M193.51 261.862H165.094V277.491H193.51V261.862Z" fill="#5D6D7E"/>
<path d="M193.51 261.862H179.302V277.491H193.51V261.862Z" fill="#34495E"/>
<path d="M193.51 300.416H165.094V316.04H193.51V300.416Z" fill="#5D6D7E"/>
<path d="M193.51 300.416H179.302V316.04H193.51V300.416Z" fill="#34495E"/>
<path d="M193.51 338.995H165.094V354.619H193.51V338.995Z" fill="#5D6D7E"/>
<path d="M193.51 338.995H179.302V354.619H193.51V338.995Z" fill="#34495E"/>
</svg>
