<svg width="512" height="512" viewBox="0 0 512 512" fill="none" xmlns="http://www.w3.org/2000/svg">
<path d="M256 512C397.385 512 512 397.385 512 256C512 114.615 397.385 0 256 0C114.615 0 0 114.615 0 256C0 397.385 114.615 512 256 512Z" fill="#E1EFFA"/>
<path d="M504.492 317.586L374.48 187.576C374.436 187.484 374.347 187.397 374.219 187.31L373.687 186.78C372.845 186.158 371.613 185.851 369.929 185.851C364.149 185.851 353.164 189.243 338.689 195.185L338.676 195.177L263.937 120.43L263.896 120.384C263.381 119.201 262.962 119.188 262.7 119.188C261.814 119.188 259.469 119.188 257.483 159.544C257.301 162.685 257.125 165.911 256.991 169.272C256.991 169.316 256.991 169.316 256.991 169.316C256.689 169.316 256.331 169.272 256.023 169.272C245.01 169.272 234.532 171.394 224.906 175.109C224.906 175.109 224.906 175.109 224.86 175.109C224.642 175.193 224.458 175.286 224.24 175.373C223.226 175.772 222.161 176.167 221.188 176.612C220.924 176.696 220.658 176.789 220.397 176.922C218.802 177.639 217.223 178.438 215.664 179.264V179.261L215.132 179.527C214.52 179.837 213.939 180.195 213.32 180.546C212.437 181.073 211.459 181.56 210.581 182.136C210.138 182.402 209.695 182.75 209.252 183.019C207.475 184.171 205.74 185.384 204.055 186.649C203.538 187.036 203.049 187.45 202.545 187.85C201.713 188.503 200.855 189.138 200.059 189.826C199.882 189.977 199.729 190.146 199.552 190.3C195.52 193.769 191.823 197.599 188.495 201.738C188.475 201.761 188.449 201.784 188.436 201.805C188.416 201.797 188.4 201.792 188.38 201.785C188.4 201.765 188.416 201.736 188.436 201.716C166.553 191.77 149.757 185.852 142.118 185.852C139.722 185.852 138.217 186.428 137.559 187.58C137.405 187.841 137.318 188.13 137.257 188.443C137.249 188.507 137.257 188.576 137.244 188.648C137.229 188.901 137.229 189.16 137.257 189.442C137.277 189.534 137.293 189.629 137.316 189.718C137.365 189.994 137.447 190.286 137.544 190.591C137.572 190.675 137.608 190.768 137.644 190.855C137.78 191.216 137.949 191.597 138.161 191.981C138.181 192.009 138.189 192.035 138.199 192.06C138.888 193.343 139.896 194.761 141.184 196.281C141.225 196.327 141.309 196.414 141.358 196.458L141.45 196.545C143.454 198.869 146.063 201.427 149.022 204.074L149.091 204.148L159.392 214.493L159.469 214.575C159.006 215.591 158.686 216.684 158.686 217.895C158.686 218.612 158.809 219.288 158.978 219.953C159.014 220.086 159.055 220.214 159.101 220.347C159.715 222.257 160.972 223.854 162.659 224.873L172.123 234.337L172.172 234.393C170.37 241.297 169.338 248.499 169.338 255.953C169.338 267.04 171.46 277.567 175.3 287.331C172.302 289.458 169.159 291.75 166.465 293.752C151.661 304.883 134.598 319.209 137.557 324.38L138.394 325.215L317.65 504.474C409.521 481.754 481.795 409.454 504.492 317.586Z" fill="#BCD4E8"/>
<path d="M342.692 255.987C342.692 303.862 303.87 342.687 255.987 342.687C208.11 342.687 169.3 303.862 169.3 255.987C169.3 208.102 208.11 169.293 255.987 169.293C303.869 169.293 342.692 208.105 342.692 255.987Z" fill="#0684BA"/>
<path d="M235.704 328.474C236.057 328.528 236.981 328.213 237.255 328.136C236.602 327.624 235.215 327.557 234.385 327.061C234.459 327.089 231.784 325.489 232.357 326.815C232.49 327.13 233.002 326.843 233.227 327.004C232.917 327.483 232.771 327.334 233.122 327.552C233.122 327.544 230.147 325.942 233.14 325.829C231.072 323.983 233.271 324.559 232.615 323.379C232.172 322.583 234.361 321.828 233.178 321.124C232.622 320.809 231.998 320.863 231.424 320.456C230.6 319.872 231.378 318.828 232.136 318.925C232.213 318.925 232.615 317.069 232.756 316.762C232.538 316.662 231.002 314.775 231.379 314.366C231.832 313.9 233.824 315.6 234.32 314.335C234.504 313.879 233.611 312.658 233.688 312.159C234.594 312.067 240.508 312.292 239.502 309.586C239.144 308.639 236.658 307.221 236.914 306.44C237.79 306.573 239.208 307.815 240.142 307.326C240.907 306.939 241.509 307.777 242.31 306.875C242.453 306.714 243.759 305.316 243.383 305.05C242.986 305.042 242.766 305.26 242.733 305.739C242.254 305.099 243.071 304.656 243.498 304.193C243.585 304.334 243.68 304.472 243.8 304.608C244.284 303.855 247.031 300.287 247.113 300.218C248.513 298.58 247.359 296.404 248.746 295.098C250.011 293.902 251.385 293.129 252.967 292.505C253.451 292.303 255.199 291.384 255.55 291.501C258.45 292.384 258.1 288.908 259.951 287.349C261.825 285.777 260.435 277.749 261.973 277.152C262.802 276.829 265.283 273.791 266.545 272.398C267.787 271.064 267.95 269.344 267.472 267.657C266.742 265.043 266.005 266.52 264.121 265.402C262.626 264.503 261.466 262.706 259.605 262.453C258.517 262.305 257.365 262.65 256.285 262.32C255.837 262.164 254.577 261.419 254.122 262.059C254.191 261.946 253.103 262.451 253.177 262.487C253.054 262.413 253.159 261.061 252.811 260.739C252.245 260.199 250.305 259.643 249.606 259.469C247.998 259.054 247.594 260.972 247.169 258.678C245.84 258.325 244.522 256.768 244.747 256.389C244.878 256.225 242.673 251.589 242.379 252.017C242.356 250.45 237.525 248.541 236.304 249.278C235.206 250.077 233.173 248.554 232.497 247.824C231.724 247.002 231.76 246.116 230.469 245.584C229.931 245.351 228.994 245.469 229.197 244.529C229.415 243.531 226.821 243.339 226.583 242.376C226.957 242.435 227.261 242.253 227.589 242.161C226.596 242.517 225.369 241.782 224.374 242.589C222.94 243.79 222.062 242.028 220.47 242.336C218.471 242.723 219.825 241.993 218.553 241.217C219.08 241.54 216.205 239.896 216.881 239.952C216.269 239.883 216.958 240.943 216.292 241.181C215.253 241.568 214.346 241.801 215.02 243.078C216.172 245.362 212.608 244.279 214.285 242.709C214.59 242.433 214.677 239.448 215.012 239.545C214.584 239.414 211.328 241.532 210.967 241.969C209.912 240.305 208.164 246.114 207.57 246.147C207.265 244.734 205.903 244.153 204.736 243.71C203.72 243.334 202.701 245.745 201.393 244.419C199.04 242.051 200.064 238.231 201.252 235.508C201.772 234.264 196.946 233.885 196.344 234.384C195.164 235.359 196.521 232.41 196.513 232.49C196.654 231.3 196.928 230.514 197.442 230.534C197.754 229.815 199.549 226.604 199.37 226.22C198.638 224.523 195.591 227.518 195.31 228.271C195.01 229.008 194.419 229.423 194.14 230.083C193.848 230.743 193.29 229.932 192.796 230.188C191.483 230.941 189.606 230.557 189.888 228.657C190.19 226.338 189.312 221.801 191.898 220.229C192.681 219.737 192.809 217.457 193.721 216.648C193.829 216.543 196.442 215.033 196.186 214.738C196.575 215.137 198.621 214.323 198.894 214.856C199.076 215.289 200.284 215.744 200.727 215.506C200.699 215.56 200.924 214.492 200.924 214.482C200.875 214.472 200.089 214.359 200.13 214.095C200.204 213.755 202.667 213.985 202.734 213.993C203.889 214.075 204.767 215.043 205.624 214.461C206.948 213.557 206.136 219.507 206.671 220.047C206.96 220.377 206.755 221.094 207.316 221.03C208.066 220.961 208.314 213.296 210.28 211.709C211.729 210.557 213.285 209.51 214.896 208.647C215.408 208.386 216.721 207.743 216.988 207.249C216.934 207.011 216.671 206.709 216.425 206.97C216.338 206.502 217.126 206.786 217.27 206.299C217.418 205.797 216.868 205.649 216.924 205.475C216.904 205.516 217.416 204.469 217.254 204.623C217.262 204.649 217.269 204.69 217.274 204.725C218.088 204.843 217.105 203.967 217.064 203.855C218.111 204.398 217.676 202.711 218.692 202.619C217.962 202.929 218.103 203.743 218.198 204.237C218.416 205.322 219.368 202.732 219.26 202.837C220.217 202.43 221.748 201.634 222.788 200.891C222.542 200.778 222.281 200.975 222.002 200.758C223.059 200.377 224.255 200.512 225.289 199.975C225.233 198.897 225.885 197.773 227.081 197.563C228.932 197.269 231.113 196.129 232.959 195.497C232.672 196.15 233.115 195.651 233.612 195.884C233.016 194.322 229.728 198.792 231.288 197.876C232.617 197.118 237.058 196.43 237.665 195.137C237.652 195.083 237.363 194.221 237.376 194.221C236.28 194.221 236.183 195.58 234.849 195.58C232.384 195.542 233.851 194.034 233.354 193.366C232.919 193.466 232.548 193.33 232.256 193C232.492 192.944 235.533 192.252 233.928 191.886C231.319 191.328 229.612 194.221 227.464 194.162C229.064 193.174 231.23 191.095 233.168 190.849C235.236 190.562 238.083 191.576 239.911 190.296C241.508 189.177 242.622 190.002 243.541 188.174C243.825 187.675 242.366 187.053 241.982 186.973C242.143 186.784 242.474 186.973 242.581 186.671C240.162 185.586 239.647 184.5 239.361 181.707C238.122 182.6 233.965 184.518 236.187 181.395C235.393 181.047 232.872 178.955 231.912 180.394C231.459 181.047 230.76 182.15 230.03 182.488C228.366 183.236 229.833 183.084 229.285 184.18C228.343 186.008 226.098 185.752 225.035 187.347C224.367 188.351 224.147 189.055 223.1 189.526C222.191 189.93 221.843 188.85 222.288 187.987C222.618 188.353 222.908 188.402 223.174 188.135C223.251 187.761 222.68 187.946 222.521 187.792C222.846 187.229 223.233 186.717 223.686 186.236C223.532 186.157 221.203 185.78 221.29 185.166C221.446 183.906 219.844 184.598 219.562 184.211C220.806 182.649 220.811 181.915 223.248 180.696C224.085 180.274 228.762 177.883 229.64 178.476C229.527 179.019 228.933 178.898 228.634 179.175C229.312 179.357 231.261 179.562 231.936 179.093C231.782 178.978 230.989 177.665 231.406 177.37C231.332 177.426 232.742 177.388 232.85 177.36C233.6 177.176 234.43 177.084 234.857 176.318C235.233 175.65 237.701 174.772 238.293 175.102C241.524 176.927 233.908 178.881 233.833 178.673C233.984 179.218 236.05 178.312 236.552 179.71C236.68 180.061 239.02 180.821 239.255 180.483C239.386 180.324 238.595 179.472 238.548 179.264C240.995 180.439 240.865 179.837 240.463 178.196C240.076 176.634 241.899 178.291 242.009 178.334C242.408 178.552 244.075 177.602 244.313 177.259C243.717 176.788 242.682 176.816 242.157 176.235C241.673 175.772 243.45 175.651 242.825 175.132C242.09 174.512 240.9 174.679 241.312 173.481C240.9 173.366 240.495 173.42 240.114 173.64C240.216 173.863 240.465 173.699 240.549 173.806C240.15 174.059 239.694 174.098 239.223 174.077C239.382 173.88 239.784 173.88 239.791 173.473C238.529 173.325 237.853 174.077 236.755 174.428C237.062 173.965 237.592 173.824 237.971 173.486C236.763 173.647 235.616 174.09 234.663 174.874C234.814 175.02 234.937 175.158 235.037 175.327C234.118 176.149 232.874 176.395 231.806 176.894C231.983 176.159 232.763 176.346 233.022 175.806C232.623 175.814 232.244 175.901 231.888 176.067C232.333 176.003 233.711 174.644 234.02 174.293C232.046 174.073 231.217 176.623 229.361 176.257C229.745 175.814 230.523 176.045 230.797 175.33C230.108 175.414 227.5 177.189 227.067 176.257C227.047 176.201 231.847 174.293 232.341 173.615C232.011 173.569 231.668 173.902 231.358 173.51C231.596 173.246 231.983 173.228 232.262 172.937C230.7 172.927 226.005 174.829 226.359 175.927C225.755 176.421 225.112 176.552 224.372 176.234C224.654 175.791 225.678 175.776 224.856 175.12C223.338 175.683 221.871 176.303 220.389 176.938C217.025 178.433 213.702 180.199 210.577 182.153C205.373 185.356 201.097 189.139 196.812 193.448C194.541 195.744 185.871 205.869 185.899 207.979C185.935 209.538 185.013 210.905 184.424 212.305C183.953 213.465 183.912 215.065 183.336 216.122C182.079 218.365 182.655 220.96 182.087 223.533C182.801 223.016 184.273 211.196 185.543 211.644C185.791 211.721 184.752 216.536 184.506 217.145C183.428 219.613 184.831 222.639 184.137 225.232C184.045 225.478 183.692 226.801 183.676 227.05C182.493 227.969 183.996 229.344 183.988 230.345C183.988 230.934 187.032 233.612 187.618 233.944C188.895 234.704 189.151 233.355 190.309 233.611C191.356 233.823 191.661 235.71 192.211 236.532C192.961 237.651 195.81 237.52 196.284 238.058C196.622 238.45 196.353 240.631 197.638 240.938C197.633 240.79 197.618 240.009 197.786 239.906C198.188 239.66 199.015 241.107 198.736 241.373C198.316 241.473 197.963 241.319 197.656 240.938C197.656 241.12 197.438 243.966 198.265 243.421C198.291 243.242 198.319 243.068 198.357 242.883C199.425 243.364 199.35 244.962 200.121 245.167C201.181 245.474 201.982 246.811 202.768 247.179C203.485 247.537 203.295 244.675 204.657 244.535C205.745 244.443 206.365 247.295 206.738 247.986C207.296 248.987 205.975 251.398 206.718 252.177C207.46 252.971 204.834 254.88 204.706 255.674C204.606 256.291 203.288 256.867 203.331 257.1C203.433 257.781 203.031 258.685 202.793 259.309C202.127 261.093 202.45 261.249 203.605 262.079C203.643 262.107 201.47 266.418 202.717 267.522C204.691 269.137 207.289 273.131 207.921 275.663C209.216 279.119 211.185 281.234 214.475 282.962C217.166 284.36 219.063 286.766 219.063 289.976C219.155 291.865 218.876 294.238 219.677 296.036C220.227 297.272 219.175 299.31 219.969 300.434C220.481 301.128 219.813 301.53 220.123 302.195C220.44 302.896 221.155 304.059 221.147 304.873C221.134 306.22 221.142 307.82 221.231 309.184C221.267 309.65 220.837 310.42 221.062 310.725C221.382 311.091 223.21 315.589 223.21 316.913C223.205 317.236 224.6 316.829 223.335 315.536C224.853 314.701 224.536 318.247 224.648 318.268C223.281 317.81 224.164 318.191 224.269 319.932C224.336 320.969 223.995 320.464 224.853 320.654C226.187 320.969 224.853 321.87 225.347 322.584C226.356 324.046 227.902 325.382 228.964 326.496C230.705 328.33 233.654 328.036 235.704 328.474C235.318 328.379 235.986 328.52 235.704 328.474ZM241.352 187.154C240.871 187.576 240.354 187.658 239.816 187.822C240.192 187.246 240.768 187.343 241.352 187.154ZM236.844 186.76C237.187 186.724 237.469 186.816 237.658 187.067C237.663 187.192 235.802 187.285 235.528 187.771C235.753 186.949 236.449 187.077 236.844 186.76C236.449 187.077 237.033 187.003 236.844 186.76ZM232.292 189.975C232.689 190.07 231.731 189.893 232.292 189.975C232.31 189.983 232.192 189.97 232.292 189.975ZM229.798 185.224C229.975 185.027 230.108 185.063 230.195 185.319C230.029 185.513 229.891 185.475 229.798 185.224C229.788 185.341 229.819 185.121 229.798 185.224ZM227.318 192.64C226.627 192.589 228.06 192.655 227.318 192.64C227.228 192.632 227.418 192.648 227.318 192.64ZM228.068 189.76C225.649 192.033 227.515 189.788 226.816 190.492C226.834 190.533 226.816 190.559 226.778 190.569C226.596 190.344 228.001 189.77 228.068 189.76C227.648 189.837 227.761 190.054 228.068 189.76ZM227.164 187.09C226.736 187.602 226.736 187.602 226.125 187.484C226.447 187.261 226.867 187.343 227.164 187.09ZM237.944 178.578C237.796 178.583 237.642 178.583 237.381 178.583C238.175 177.938 238.016 178.578 237.944 178.578C238.057 178.578 237.798 178.586 237.944 178.578ZM239.7 177.423C239.424 177.723 239.055 177.551 238.717 177.694C239.068 177.009 239.124 177.001 239.7 177.423ZM229.924 178.209C230.129 178.02 230.377 177.938 230.628 177.953C230.874 178.296 229.158 178.491 229.924 178.209C229.827 178.255 230.029 178.03 229.924 178.209ZM229.476 177.72C229.76 177.843 229.737 177.966 229.407 178.107C229.176 177.969 229.21 177.843 229.476 177.72C229.353 177.743 229.588 177.72 229.476 177.72ZM216.847 199.291C216.867 199.291 213.061 200.807 213.35 199.867C213.25 200.161 214.656 198.799 214.361 198.92C214.673 198.789 217.223 198.633 217.963 198.638C217.574 199.022 217.213 199.155 216.847 199.291C217.213 199.155 215.99 199.608 216.847 199.291ZM219.886 197.414C223.019 197.716 218.017 198.656 217.482 198.103C218.196 197.494 219.018 197.312 219.886 197.414C219.018 197.312 220.132 197.443 219.886 197.414ZM219.369 177.905C220.206 177.367 221.105 176.953 222.198 176.704C221.394 177.38 220.327 177.649 219.341 177.92L219.369 177.905ZM219.543 194.852C219.395 195.003 219.267 194.993 219.136 194.852C219.323 194.783 219.51 194.726 219.543 194.852C219.51 194.726 219.594 194.99 219.543 194.852ZM218.616 196.733C218.547 196.733 218.309 196.667 218.616 196.733C218.632 196.733 218.511 196.708 218.616 196.733ZM217.69 195.131C218.832 195.663 218.174 197.443 217.204 196.058C217.166 196.877 215.735 198.262 214.961 198.426C215.263 198.103 215.36 197.745 215.271 197.351C215.025 197.169 214.554 197.717 214.291 197.709C214.399 198.208 216.342 194.381 214.713 195.477C214.106 195.94 210.187 200.118 209.957 199.888C209.591 199.522 211.69 196.442 211.846 196.335C213.189 195.215 215.99 194.335 217.69 195.131ZM215.511 180.554C215.67 180.446 216.919 179.681 217.08 179.863C217.502 180.365 215.068 180.984 214.945 181C215.086 180.703 215.316 180.657 215.511 180.554C215.316 180.657 215.946 180.298 215.511 180.554ZM215.772 190.781C215.767 190.835 215.28 191.805 214.958 191.421C214.725 191.15 215.685 190.344 215.772 190.781C215.749 190.659 215.734 191.035 215.772 190.781ZM213.012 182.876C213.168 182.876 215.198 181.611 215.267 182.131C215.288 182.28 212.785 182.912 213.012 182.876ZM212.457 184.988C212.332 185.216 212.211 185.328 211.925 185.328C212.037 185.093 212.214 185.055 212.457 184.988ZM211.034 189.893C211.334 189.675 211.989 188.608 211.659 188.185C211.833 188.41 210.435 188.037 211.075 187.798C211.339 187.706 212.936 186.838 213.19 187.109C213.646 187.572 211.203 190.143 210.707 190.358C210.752 190.095 210.903 189.99 211.034 189.893C210.903 189.99 211.433 189.583 211.034 189.893ZM212.429 193.126C214.19 192.576 214.817 191.572 215.877 192.916C216.269 193.418 216.2 194.711 215.265 194.398C215.513 194.493 212.413 194.191 212.979 193.848C212.354 194.25 211.154 194.516 210.427 194.194C211.103 193.805 211.707 193.37 212.429 193.126C211.707 193.37 212.859 192.983 212.429 193.126ZM209.992 189.865C210.148 190.272 210.03 190.49 209.549 190.566C209.741 190.272 209.866 190.07 209.992 189.865ZM185.096 227.709C184.302 227.681 185.718 227.681 185.096 227.709C185.006 227.699 185.172 227.699 185.096 227.709ZM195.131 234.911C194.913 234.985 195.763 234.772 195.131 234.911C195.11 234.926 195.244 234.898 195.131 234.911ZM219.651 243.013C219.228 242.949 220.16 243.057 219.651 243.013C219.615 243.013 219.709 243.018 219.651 243.013ZM223.67 314.859C222.986 314.742 224.038 314.312 223.67 314.859C223.498 314.839 223.688 314.839 223.67 314.859ZM225.444 278.922C225.196 278.669 225.592 279.066 225.444 278.922C225.431 278.894 225.5 278.966 225.444 278.922ZM225.725 301.327C225.288 301.468 226.209 301.13 225.725 301.327C225.608 301.363 225.802 301.292 225.725 301.327ZM228.096 325.437C227.776 325.263 227.776 325.158 228.076 325.107C228.429 325.235 228.434 325.368 228.096 325.437C228.204 325.489 227.958 325.43 228.096 325.437ZM231.217 326.815C230.894 326.751 230.923 326.618 231.317 326.436C231.583 326.548 231.555 326.679 231.217 326.815C231.301 326.779 231.084 326.815 231.217 326.815ZM224.594 317.896C224.558 317.924 224.517 317.924 224.486 317.932C224.586 317.86 224.614 317.837 224.594 317.896ZM232.361 173.619C232.361 173.619 232.356 173.619 232.341 173.619C232.356 173.609 232.356 173.599 232.356 173.599L232.361 173.619ZM202.918 187.574C202.918 187.574 202.903 187.574 202.898 187.574H202.918ZM341.276 240.456H341.284C339.592 234.212 338.327 228.035 335.729 221.988C332.667 214.794 328.622 208.018 323.73 201.915C319.13 196.15 313.807 190.986 307.899 186.563C305.034 184.415 302.037 182.457 298.908 180.67C297.421 179.812 295.887 179.016 294.359 178.248C293.678 177.931 291.318 177.298 290.967 176.727C290.99 176.983 292.344 177.672 292.518 177.861C291.612 177.628 289.182 176.596 289.154 176.435C289.198 176.322 289.402 176.435 289.387 176.238C288.017 175.375 282.892 173.491 281.866 174.879C282.091 174.61 285.394 178.44 285.499 179.118C285.701 180.608 288.033 182.185 289.516 182.671C291.587 183.365 290.036 182.441 290.914 181.949C291.462 181.667 291.982 182.886 292.506 182.615C292.493 182.597 292.506 182.592 292.521 182.577C292.38 182.301 292.219 182.016 292.05 181.725C291.909 181.725 295.793 185.744 296.292 184.876C295.818 183.788 295.132 182.544 294.029 181.52C293.046 180.606 291.51 180.514 290.455 179.603C289.915 179.14 287.936 177.693 287.723 177.017C290.337 177.109 293.35 182.644 295.969 180.496C295.618 180.24 295.262 179.974 294.917 179.684C295.396 179.832 297.579 180.531 296.842 181.448C294.761 181.082 298.624 183.207 298.675 183.437C298.301 183.409 298.043 183.112 297.692 183.079C297.833 183.814 299.896 184.554 300.037 185.8C298.795 185.987 299.336 185.042 298.534 186.053C298.273 186.373 297.164 186.278 296.547 186.319C295.119 186.442 293.534 184.007 292.471 183.257C292.914 184.619 293.651 185.251 295.177 186.211C295.914 186.633 294.153 186.823 294.163 187.43C294.227 187.43 294.642 187.648 294.629 187.765C294.629 187.842 294.237 187.486 294.163 187.43C294.319 187.338 293.925 189.818 293.892 189.783C295.064 191.145 292.32 190.758 292.254 190.794C292.472 191.104 292.902 191.278 293.007 191.721C292.206 191.777 291.561 191.649 290.775 191.939C291.912 192.264 298.112 195.144 296.773 197.3C296.322 198.007 292.109 197.134 291.343 197.095C289.707 196.987 291.23 198.651 291.259 198.849C291.525 200.085 292.488 200.633 292.403 202.072C292.334 203.096 293.381 203.134 293.704 203.987C293.978 204.75 293.817 204.811 294.61 204.919C296.003 205.091 296.031 204.883 297.203 205.797C298.017 206.437 298.347 205.185 299.33 205.157C301.795 205.044 299.696 204.545 300.876 204.212C302.338 203.808 300.469 201.509 300.561 201.079C300.658 200.472 300.469 199.804 301.275 199.576C302.511 199.243 300.932 197.945 300.847 197.592C300.609 196.581 304.295 198.47 303.852 195.874C305.967 196.529 308.153 198.462 310.109 199.56C311.269 200.251 312.421 200.919 313.263 202.012C314.261 203.315 311.822 202.78 311.668 203.154C311.52 203.566 313.826 204.611 314.195 204.6C314.238 204.367 313.916 203.031 313.872 202.798C313.759 201.876 312.431 200.965 312.525 200.23C312.96 200.266 313.347 200.437 313.669 200.711C312.427 199.17 310.423 199.024 309.005 197.9C308.135 197.191 307.075 196.635 306.245 195.906C306.24 195.906 304.729 193.989 305.782 194.357C307.433 194.933 309.238 196.607 310.922 197.49C312.263 198.202 312.609 198.624 313.592 199.779C313.971 200.23 316.05 202.621 316.5 202.713C316.485 202.687 318.192 204.205 318.868 204.431C318.558 203.737 318.289 202.869 317.954 202.314C317.483 201.564 315.558 201.142 315.558 200.015C315.988 200.046 316.05 199.593 316.979 199.621C316.48 199.611 317.581 198.886 317.511 198.991C315.722 197.975 313.297 194.974 312.647 192.937C313.136 192.957 313.42 193.618 313.945 193.275C313.771 192.937 313.727 192.574 313.771 192.195C313.919 192.356 315.612 193.81 315.281 194.102C314.797 194.094 314.411 193.897 314.065 193.521C314.29 194.371 315.161 194.389 315.499 194.983C315.55 194.747 315.379 194.553 315.576 194.289C317.071 194.906 320.092 197.274 320.507 198.935C319.854 199.004 318.605 197.617 318.17 197.962C318.022 198.292 318.034 198.622 318.239 198.95C318.034 198.95 317.86 199.006 317.683 199.086C317.916 199.283 318.057 199.537 318.098 199.831C317.857 199.908 317.599 199.982 317.353 200.049C317.563 200.889 321.966 205.067 322.268 204.657C322.373 204.509 322.086 204.089 322.163 204.014C322.404 203.75 323.09 204.959 323.448 204.726C323.73 204.537 323.154 204.16 323.484 203.996C324.152 203.658 326.786 208.809 327.101 209.421C328.378 211.82 327.529 210.358 326.569 210.686C326.421 210.929 326.308 211.188 326.303 211.485C324.757 211.129 323.077 210.249 321.82 209.35C319.846 207.909 322.475 213.246 321.323 212.573C320.642 212.194 320.255 211.623 319.406 211.562C318.213 211.437 317.86 210.136 316.759 209.77C315.84 209.468 312.264 209.153 312.727 207.486C313.101 206.081 311.293 204.929 310.692 204.399C310.382 204.115 306.414 204.629 305.761 204.816C304.663 205.174 302.935 205.533 302.318 206.557C301.266 208.454 298.836 205.953 297.851 206.345C297.339 206.552 297.838 208.119 297.564 208.621C297.188 209.363 296.21 209.422 295.964 210.303C295.542 211.936 296.778 213.262 296.21 214.763C295.759 215.946 293.458 216.463 293.422 217.446C293.414 217.958 293.317 218.549 292.826 218.826C291.779 219.412 292.854 220.792 292.201 221.491C288.684 225.065 293.33 228.585 292.531 232.532C292.096 234.746 291.817 235.21 292.784 237.132C293.002 237.624 292.835 241.08 294.597 239.689C294.822 241.693 297.421 242.124 297.876 244.044C298.439 246.32 300.664 247.323 302.412 248.68C303.106 249.23 303.697 249.927 304.491 250.344C305.925 251.081 306.892 249.945 308.257 249.558C309.491 249.218 310.771 249.34 311.943 249.896C312.603 250.213 317.567 246.686 318.924 247.354C319.91 247.84 319.963 249.051 320.422 249.904C321.059 251.133 322.437 249.533 323.351 249.94C324.982 250.672 325.466 256.634 324.073 257.728C323.057 258.491 325.422 261.752 325.745 262.413C326.664 264.254 327.506 267.477 327.22 269.527C326.987 271.178 327.438 273.797 326.498 275.256C325.548 276.715 325 278.249 324.243 279.925C322.274 284.167 324.159 288.977 322.482 293.403C321.458 295.658 321.64 298.065 321.077 300.433C320.719 301.959 318.881 304.148 319.587 305.742C320.711 304.744 322.362 304.872 323.596 304.252C326.161 302.99 327.387 300.018 329.251 298.044C330.242 297.005 330.874 295.691 331.455 294.383C332.011 293.167 333.155 292.389 333.682 291.196C334.98 288.155 336.16 285.149 337.486 282.121C340.225 275.575 340.681 269.298 341.643 262.309C342.646 254.892 342.666 247.844 341.276 240.456ZM334.73 223.235C334.377 222.354 329.758 215.583 330.311 215.212C330.913 214.825 340.789 232.303 339.722 235.014C338.196 231.035 336.415 227.156 334.73 223.235C335.073 224.033 334.715 223.188 334.73 223.235ZM338.964 254.162C338.775 253.678 339.033 253.256 339.153 252.695C339.372 253.297 339.046 253.701 338.964 254.162ZM338.452 256.901C338.429 256.609 338.416 256.366 338.613 256.156C338.752 256.458 338.619 256.643 338.452 256.901ZM336.806 279.337C336.632 279.414 336.44 279.47 336.274 279.526C335.957 279.526 336.858 279.083 336.906 279.063C336.858 279.217 336.858 279.283 336.806 279.337C336.858 279.283 336.684 279.534 336.806 279.337ZM337.06 270.223C337.055 269.409 337.075 269.358 337.902 268.83C337.743 269.419 337.152 269.681 337.06 270.223ZM337.994 265.987C337.979 264.461 337.925 262.685 338.26 261.197C338.321 263.775 338.449 266.378 338.365 268.977C337.961 268.436 337.994 266.647 337.994 265.987C337.994 266.506 337.987 265.426 337.994 265.987ZM339.343 270.84C339.323 272.23 339.125 276.009 338.199 277.097C338.299 274.737 339.156 272.617 339.213 270.269C339.407 270.51 339.343 270.676 339.343 270.84C339.343 270.676 339.343 270.986 339.343 270.84ZM340.431 256.66C340.039 258.332 340.423 258.849 339.425 259.763C339.41 258.524 338.967 256.171 340.231 255.444C340.406 255.846 340.544 256.174 340.431 256.66C340.544 256.174 340.262 257.357 340.431 256.66ZM286.011 337.188C286.144 337.441 275.103 340.547 273.982 340.79C269.387 341.76 264.746 342.349 260.056 342.587C251.152 343.022 241.824 342.211 233.263 339.61C234.369 339.723 235.708 340.299 236.824 340.122C235.749 339.454 234.436 339.687 233.473 338.845C237.054 339.434 240.467 339.16 243.741 339.59C243.393 339.132 240.405 338.418 240.436 338.108C240.853 338.072 243.155 337.988 243.234 337.934C244.322 337.092 241.509 337.189 241.772 336.593C241.841 336.427 242.609 336.685 242.888 336.332C243.316 335.764 242.888 335.462 243.057 335.183C243.177 334.942 247.488 334.19 247.947 334.382C247.44 334.676 246.859 334.338 247.069 335.178C246.641 335.114 245.303 335.163 245.216 335.739C245.247 335.598 246.683 337.595 246.737 337.692C247.231 338.48 248.951 338.941 249.12 339.878C249.386 341.458 257.601 341.291 258.84 341.163C261.899 340.805 264.772 339.704 267.792 339.184C269.581 338.861 271.379 338.362 273.191 338.193C274.049 338.101 276.857 337.118 277.523 337.335C277.932 338.803 284.493 336.901 286.011 337.188C285.765 337.152 286.024 337.229 286.011 337.188ZM335.946 289.336C336.297 288.437 336.583 287.526 337.021 286.661C336.73 287.59 336.346 288.448 335.946 289.336ZM337.37 285.742C337.421 285.629 337.46 285.517 337.511 285.412C337.51 285.553 337.434 285.645 337.37 285.742ZM242.56 172.257C242.104 172.162 241.605 172.213 241.114 172.155C241.367 171.925 242.827 171.871 242.189 171.471C244.196 170.245 248.377 169.981 250.665 170.273C253.253 170.593 255.841 169.779 258.371 170.199C259.41 170.347 260.291 170.368 261.325 170.447C262.226 170.542 261.207 171.468 262.226 171.609C262.802 171.693 264.015 173.055 264.563 172.753C264.543 173.708 264.115 173.035 264.409 173.933C264.478 174.13 265.538 174.734 265.497 174.803C265.4 174.944 262.52 174.742 262.653 174.775C262.423 174.739 262.697 175.226 262.886 175.141C263.462 175.302 264.698 175.105 265.331 175.161C263.877 176.474 261.714 176.313 260.091 177.373C259.105 178.008 257.618 177.949 256.533 178.336C256.533 179.462 255.696 180.814 254.966 181.946C254.446 182.732 250.78 180.917 250.394 180.443C249.608 179.491 247.775 176.964 249.754 176.17C252.153 175.236 249.759 176.006 249.055 175.489C249.631 174.693 250.271 174.967 251.182 175.09C250.714 174.45 250.14 174.278 249.446 174.627C249.21 173.936 250.434 173.311 249.351 172.576C248.895 172.256 246.356 172.63 246.282 172.179C246.128 171.065 249.372 171.667 249.948 170.753C247.519 170.245 244.913 172.613 242.56 172.257C242.995 172.314 242.102 172.163 242.56 172.257ZM288.207 188.777C288.586 188.726 287.703 187.492 287.485 187.246C287.756 187.274 287.989 187.295 288.243 187.141C288.041 186.565 285.519 185.111 285.335 185.224C284.38 185.818 283.187 183.145 283.067 182.789C284.698 182.546 285.714 184.317 287.201 185.026C288.437 185.638 292.969 187.793 293.109 189.148C293.201 189.837 289.681 189.545 289.154 190.354C288.755 189.371 290.035 189.379 289.999 189.051C289.958 188.826 288.376 188.754 288.207 188.777C288.735 188.703 288.102 188.797 288.207 188.777ZM242.012 190.054C241.774 190.231 238.692 193.134 238.774 193.418C238.843 193.682 241.964 193.495 242.496 193.787C242.468 194.145 242.04 193.969 241.976 194.268C242.373 194.268 243.627 193.495 243.842 193.728C243.865 193.92 243.839 194.109 243.74 194.296C245.117 195.655 244.989 192.701 245.061 192.54C244.091 192.415 245.263 191.048 243.627 191.629C243.74 191.591 241.858 191.073 241.963 191.176C241.807 191.035 243.292 189.742 243.391 189.576C242.527 189.368 242.419 189.742 242.012 190.054C242.117 189.97 241.477 190.433 242.012 190.054ZM245.038 193.265C245.158 193.39 244.818 193.39 245.038 193.265C245.061 193.285 245.005 193.275 245.038 193.265ZM244.342 193.185C244.424 193.077 244.946 192.868 244.631 193.172C244.518 193.377 244.063 193.513 244.342 193.185C244.28 193.265 244.372 193.152 244.342 193.185ZM242.158 189.652H242.186C242.186 189.652 242.186 189.665 242.191 189.68C242.186 189.668 242.186 189.668 242.158 189.652ZM239.414 192.443C239.483 192.443 239.555 192.443 239.614 192.497C239.539 192.494 239.196 192.479 239.414 192.443C239.35 192.448 239.483 192.443 239.414 192.443ZM209.326 228.598C208.476 228.693 209.874 227.94 209.761 227.664C209.185 226.351 205.253 226.049 204.887 225.007C205.059 224.943 205.181 224.82 205.23 224.651C203.881 224.101 203.195 225.757 201.963 225.639C204.505 221.361 210.764 226.264 213.283 228.24C211.973 228.401 210.639 228.421 209.326 228.598C210.053 228.495 209.211 228.611 209.326 228.598ZM212.595 230.886C211.965 230.607 214.674 230.63 215.035 230.479C214.508 229.657 214.979 229.214 213.947 228.894C214.902 227.737 218.058 229.086 219.052 229.516C218.968 229.664 218.765 229.536 218.673 229.705C218.75 229.787 220.836 231.489 219.438 230.921C217.899 230.276 217.042 231.174 215.969 231.791C215.117 230.574 213.722 231.424 212.595 230.886C212.851 230.999 212.465 230.828 212.595 230.886ZM286.003 187.031C287.478 188.559 285.181 189.719 284.155 188.744C283.651 188.209 283.937 186.996 282.773 186.627C283.08 186.535 283.405 186.443 283.7 186.325C282.906 184.443 285.622 186.627 286.003 187.031C285.891 186.908 286.326 187.379 286.003 187.031ZM266.796 177.761C266.719 177.449 268.923 177.587 269.274 177.518C269.87 177.423 274.289 177.864 272.733 178.565C271.522 179.103 269.776 179.717 268.645 178.68C268.367 178.442 266.824 177.815 266.796 177.761C266.877 178.048 266.752 177.567 266.796 177.761ZM306.936 199.542C307.443 199.542 308.705 201.513 308.495 201.838C307.899 202.77 306.923 200.42 306.309 200.054C306.537 199.892 306.742 199.734 306.936 199.542ZM238.339 172.849C239.837 171.728 240.185 172.36 242.054 172.549C241.449 173.094 240.013 173.204 238.339 172.849C240.013 173.204 238.753 172.541 238.339 172.849ZM271.437 171.556C270.313 171.254 269.166 171.213 268.091 170.775C269.379 170.627 270.927 171.123 271.821 171.387C272.125 171.476 271.36 171.538 271.437 171.556C271.526 171.574 270.313 171.254 271.437 171.556ZM268.093 170.775C267.98 170.795 267.847 170.803 267.722 170.819C267.848 170.698 267.976 170.691 268.093 170.775C268.037 170.77 267.981 170.796 268.093 170.775ZM209.667 230.95C209.903 230.978 210.041 231.106 210.082 231.324C209.923 231.949 207.98 231.073 207.773 230.799C208.448 230.4 209.073 230.63 209.667 230.95ZM223.619 230.902C222.597 233.423 219.986 229.13 223.619 230.902C223.468 231.27 223.007 230.607 223.619 230.902ZM227.656 243.167C227.679 243.1 227.748 243.072 227.838 243.059C227.789 243.1 227.732 243.128 227.656 243.167ZM228.001 243.1C227.957 243.092 228.283 242.068 228.938 242.02C229.727 242.483 228.385 243.146 228.001 243.1C228.864 243.192 227.945 243.092 228.001 243.1ZM236.216 172.314C235.527 172.775 234.693 172.47 233.966 172.739C234.972 172.047 235.428 172.101 236.216 172.314C236.088 172.285 235.528 172.774 236.216 172.314ZM210.161 223.148C209.887 222.116 209.488 222.093 210.189 221.192C210.452 222.149 210.452 222.725 210.161 223.148C210.452 222.725 210.053 222.72 210.161 223.148ZM191.36 259C191.347 259.387 191.173 259.512 190.81 259.387C190.687 259.269 190.631 258.023 190.856 257.764C191.027 258.166 191.201 258.565 191.36 259C191.201 258.565 191.432 259.164 191.36 259ZM234.824 191.186C235.625 191.158 236.273 191.411 236.99 191.944C236.045 192.118 235.428 191.754 234.824 191.186ZM306.614 199.191L306.629 199.199C306.383 199.14 304.978 198.272 305.554 197.822C305.964 197.512 306.568 199.05 306.614 199.191ZM321.175 206.426C320.901 206.15 320.325 206.344 320.177 205.773C320.661 206.032 321.209 205.906 321.68 206.277C321.49 206.403 321.334 206.587 321.175 206.426C321.334 206.587 320.901 206.147 321.175 206.426ZM237.445 172.792C237.294 172.585 237.051 172.715 236.902 172.544C237.301 172.091 237.854 172.26 238.338 172.122C238.321 172.163 237.745 173.233 237.445 172.792C237.524 172.925 237.294 172.585 237.445 172.792ZM235.008 173.332C234.365 173.806 233.71 174.279 232.817 174.21C233.408 173.581 234.222 173.486 235.008 173.332ZM234.78 194.796C234.959 194.824 235.136 194.77 235.425 194.758C234.573 195.8 233.577 194.336 233.792 194.284C233.641 194.317 234.729 194.783 234.78 194.796C234.455 194.744 234.959 194.824 234.78 194.796ZM235.136 173.74C235.74 173.261 236.449 173.174 237.171 173.236C236.547 173.609 235.881 173.806 235.136 173.74ZM302.986 201.628C302.31 201.528 304.263 200.911 303.562 201.81C303.342 201.789 303.16 201.738 302.986 201.628C303.188 201.646 302.886 201.608 302.986 201.628ZM324.644 206.579C324.214 206.367 324.058 206.1 324.186 205.616C324.534 205.873 324.664 206.136 324.644 206.579ZM236.618 176.886C236.887 176.451 237.138 176.336 237.995 176.354C237.565 176.837 237.123 176.906 236.618 176.886ZM230.377 179.794C229.875 180.068 229.504 180.25 228.977 180.229C229.353 179.794 229.788 179.814 230.377 179.794ZM282.406 183.375C282.306 183.564 282.398 183.68 282.547 183.826C282.386 183.762 281.789 183.004 282.245 182.876C282.455 182.981 282.506 183.13 282.406 183.375C282.463 183.263 282.307 183.565 282.406 183.375ZM203.991 225.83C203.973 226.14 203.822 226.281 203.553 226.273C203.418 226.02 203.86 225.295 203.991 225.83C203.96 225.725 204.045 226.012 203.991 225.83ZM233.183 315.873C233.406 315.957 233.536 316.126 233.57 316.377C233.569 317.13 232.2 315.971 233.183 315.873C232.965 315.881 233.334 315.85 233.183 315.873ZM231.217 180.242C231.056 180.488 230.83 180.621 230.459 180.744C230.646 180.337 230.902 180.275 231.217 180.242ZM192.01 258.857C191.928 259.73 191.739 258.025 192.01 258.857C191.992 258.954 191.972 258.762 192.01 258.857ZM237.005 181.691C237.033 181.671 237.082 181.711 237.12 181.719C237.018 181.78 236.82 181.78 237.005 181.691ZM233.137 173.425C233.035 173.43 232.925 173.448 232.825 173.474C232.924 173.394 233.029 173.394 233.137 173.425ZM232.791 173.481C232.732 173.481 232.819 173.473 232.827 173.473C232.817 173.473 232.791 173.473 232.791 173.481ZM232.374 173.599C232.374 173.599 232.361 173.609 232.361 173.619C232.356 173.599 232.361 173.599 232.374 173.599ZM232.374 173.599C232.469 173.474 232.62 173.486 232.761 173.481C232.66 173.627 232.53 173.655 232.374 173.599ZM235.121 173.74H235.136C235.136 173.747 235.121 173.755 235.121 173.74ZM235.121 173.747C235.093 173.916 234.978 173.888 234.86 173.888C234.911 173.747 235.008 173.74 235.121 173.747ZM203.231 262.566C203.041 262.42 203.361 262.684 203.231 262.566C203.146 262.502 203.331 262.659 203.231 262.566ZM295.946 180.554C296.481 180.703 295.99 180.664 295.946 180.554C295.946 180.554 295.967 180.636 295.946 180.554ZM282.563 183.836C282.555 183.826 282.555 183.826 282.548 183.826C282.592 183.826 282.609 183.872 282.592 183.944C282.591 183.913 282.568 183.869 282.563 183.836C282.568 183.869 282.555 183.826 282.563 183.836ZM234.854 173.885C234.854 173.885 234.854 173.885 234.859 173.885C234.859 173.893 234.854 173.893 234.846 173.893C234.847 173.893 234.854 173.893 234.854 173.885ZM234.673 173.921C234.729 173.906 234.788 173.906 234.847 173.893C234.765 174.013 234.708 174.013 234.673 173.921C234.678 173.937 234.729 173.908 234.673 173.921ZM313.667 200.722V200.709L313.68 200.729L313.667 200.722ZM244.854 256.62C244.6 256.404 245.046 256.466 244.854 256.62C244.818 256.602 244.913 256.556 244.854 256.62ZM286.065 337.167C286.045 337.187 286.029 337.187 286.011 337.187C286.024 337.151 286.032 337.126 286.065 337.136C286.065 337.137 286.065 337.16 286.065 337.167ZM286.011 337.188C286.003 337.188 286.003 337.188 286.011 337.188V337.188ZM216.753 195.244C216.797 195.234 217.6 195.139 217.311 195.449C217.004 195.617 216.827 195.533 216.753 195.244C216.76 195.412 216.847 195.233 216.753 195.244ZM211.684 188.186C211.461 188.038 211.515 187.876 211.832 187.707C212.106 187.807 212.065 187.968 211.684 188.186C211.876 188.137 211.587 188.173 211.684 188.186Z" fill="#F2F9FF"/>
<path d="M292.357 177.28C312.297 192.289 325.176 216.138 325.176 242.985C325.176 288.384 288.381 325.171 242.992 325.171C216.143 325.171 192.284 312.292 177.29 292.359C191.042 322.068 221.102 342.689 255.984 342.689C303.866 342.689 342.689 303.864 342.689 255.989C342.692 221.097 322.068 191.055 292.357 177.28Z" fill="#03628A"/>
<path d="M324.644 206.579C324.214 206.367 324.058 206.1 324.186 205.616C324.534 205.873 324.664 206.136 324.644 206.579ZM235.704 328.474C233.653 328.036 230.702 328.331 228.966 326.5C228.106 325.601 226.954 324.554 225.994 323.402C228.068 323.845 230.164 324.183 232.289 324.457C232.171 324.695 232.253 325.033 233.141 325.832C230.148 325.945 233.123 327.547 233.123 327.555C232.772 327.337 232.918 327.486 233.228 327.007C233.003 326.846 232.491 327.132 232.358 326.818C231.782 325.489 234.457 327.089 234.386 327.064C235.215 327.561 236.603 327.627 237.256 328.139C236.982 328.216 236.084 328.523 235.717 328.477C235.625 328.443 235.451 328.422 235.704 328.474ZM228.073 325.107C227.773 325.158 227.773 325.263 228.093 325.437C228.434 325.368 228.429 325.235 228.073 325.107ZM231.314 326.436C230.92 326.618 230.892 326.751 231.214 326.815C231.555 326.679 231.583 326.548 231.314 326.436ZM321.679 206.277C321.208 205.903 320.663 206.031 320.176 205.773C320.324 206.344 320.898 206.147 321.174 206.426C320.992 206.252 321.113 206.37 321.182 206.426C321.334 206.579 321.505 206.403 321.679 206.277ZM313.38 200.545C313.477 200.604 313.575 200.645 313.667 200.722C313.554 200.597 313.414 200.51 313.293 200.399C313.331 200.448 313.349 200.497 313.38 200.545ZM313.667 200.722L313.68 200.727L313.667 200.707V200.722ZM235.72 328.474H235.707C235.802 328.484 235.776 328.474 235.72 328.474ZM334.828 223.46C334.784 223.358 334.723 223.217 334.731 223.235C334.766 223.316 334.799 223.386 334.828 223.46ZM285.952 337.188C284.344 336.935 277.924 338.775 277.524 337.329C276.856 337.111 274.05 338.094 273.192 338.187C271.38 338.353 269.582 338.855 267.793 339.178C264.772 339.698 261.9 340.801 258.841 341.157C257.599 341.285 249.387 341.451 249.121 339.872C248.952 338.938 247.232 338.474 246.738 337.686C246.684 337.589 245.248 335.594 245.217 335.733C245.304 335.157 246.643 335.108 247.07 335.172C246.86 334.335 247.444 334.673 247.948 334.376C247.492 334.187 243.179 334.939 243.058 335.177C242.889 335.456 243.319 335.761 242.889 336.326C242.61 336.679 241.842 336.418 241.773 336.587C241.509 337.183 244.323 337.086 243.235 337.928C243.153 337.982 240.854 338.069 240.437 338.102C240.404 338.412 243.394 339.126 243.742 339.584C240.47 339.154 237.055 339.428 233.474 338.839C234.437 339.681 235.75 339.448 236.825 340.116C235.709 340.29 234.37 339.717 233.264 339.604C241.825 342.205 251.153 343.016 260.057 342.581C264.747 342.343 269.391 341.754 273.983 340.784C275.104 340.538 286.146 337.433 286.012 337.182C285.87 337.167 285.914 337.188 285.952 337.188ZM340.426 256.704C340.426 256.691 340.426 256.691 340.434 256.66C340.339 257.044 340.39 256.86 340.426 256.704ZM338.514 230.052C338.949 231.591 339.364 233.106 339.756 234.657C339.85 233.774 339.343 232.087 338.514 230.052ZM341.632 262.313C340.669 269.302 340.214 275.581 337.475 282.125C336.146 285.154 334.969 288.159 333.671 291.2C333.144 292.393 331.999 293.174 331.444 294.387C330.86 295.695 330.228 297.006 329.24 298.048C327.376 300.022 326.15 302.994 323.585 304.256C322.351 304.876 320.7 304.748 319.576 305.746C318.869 304.151 320.708 301.96 321.066 300.437C321.629 298.069 321.445 295.663 322.471 293.407C324.148 288.981 322.266 284.173 324.232 279.929C324.99 278.252 325.538 276.719 326.487 275.26C327.427 273.801 326.976 271.179 327.209 269.531C327.496 267.478 326.653 264.255 325.734 262.417C325.411 261.757 323.043 258.495 324.062 257.732C324.948 257.041 325.068 254.417 324.641 252.392C324.992 249.31 325.181 246.166 325.181 242.989C325.181 231.792 322.933 221.101 318.868 211.376C319.034 211.445 319.183 211.55 319.4 211.573C320.25 211.634 320.636 212.205 321.317 212.584C322.469 213.257 319.842 207.92 321.814 209.361C323.071 210.26 324.75 211.14 326.297 211.496C326.305 211.202 326.417 210.94 326.563 210.697C327.523 210.372 328.373 211.831 327.096 209.432C326.781 208.82 324.147 203.669 323.479 204.007C323.149 204.171 323.727 204.547 323.443 204.737C323.085 204.967 322.399 203.762 322.158 204.025C322.081 204.099 322.368 204.519 322.263 204.668C321.961 205.078 317.558 200.9 317.348 200.06C317.594 199.993 317.852 199.919 318.093 199.842C318.049 199.548 317.911 199.294 317.678 199.097C317.852 199.018 318.029 198.961 318.234 198.961C318.029 198.636 318.016 198.303 318.165 197.973C318.6 197.63 319.849 199.017 320.502 198.946C320.087 197.285 317.066 194.917 315.571 194.3C315.374 194.564 315.543 194.761 315.494 194.994C315.156 194.4 314.286 194.382 314.06 193.532C314.406 193.908 314.79 194.105 315.276 194.113C315.606 193.821 313.914 192.367 313.766 192.206C313.722 192.585 313.766 192.951 313.94 193.286C313.415 193.629 313.134 192.969 312.642 192.948C313.295 194.983 315.717 197.984 317.506 199.002C317.575 198.897 316.474 199.622 316.973 199.632C316.046 199.604 315.982 200.057 315.552 200.026C315.552 201.152 317.477 201.575 317.948 202.325C318.286 202.881 318.552 203.751 318.862 204.442C318.186 204.217 316.479 202.699 316.494 202.724C316.043 202.632 313.967 200.241 313.586 199.79C312.841 198.927 312.462 198.466 311.745 197.988C307.608 191.678 302.626 185.989 296.969 181.048C296.956 180.605 296.329 180.234 295.745 180.001C294.806 179.223 293.858 178.439 292.88 177.705C293.484 177.915 294.06 178.099 294.355 178.245C295.886 179.013 297.417 179.809 298.904 180.667C302.032 182.454 305.03 184.41 307.895 186.56C313.803 190.986 319.126 196.147 323.726 201.912C328.616 208.015 332.66 214.791 335.725 221.985C336.869 224.66 337.732 227.351 338.513 230.046C336.025 223.976 330.754 214.916 330.311 215.206C329.755 215.58 334.376 222.348 334.73 223.229C334.925 223.69 334.891 223.605 334.827 223.454C336.483 227.299 338.227 231.098 339.722 235.007C339.758 234.92 339.75 234.769 339.758 234.651C340.257 236.576 340.749 238.514 341.284 240.449H341.276C342.666 247.844 342.646 254.892 341.632 262.313ZM338.964 254.162C339.046 253.701 339.371 253.299 339.153 252.695C339.036 253.256 338.775 253.676 338.964 254.162ZM338.452 256.901C338.618 256.645 338.752 256.458 338.613 256.156C338.417 256.363 338.429 256.609 338.452 256.901ZM336.906 279.066C336.855 279.086 335.956 279.529 336.274 279.529C336.44 279.473 336.632 279.416 336.806 279.34C336.681 279.537 336.857 279.286 336.806 279.34C336.858 279.283 336.858 279.217 336.906 279.066ZM337.902 268.831C337.075 269.358 337.055 269.41 337.06 270.224C337.152 269.681 337.743 269.419 337.902 268.831ZM337.994 265.987C337.994 266.647 337.958 268.437 338.368 268.977C338.452 266.379 338.324 263.775 338.263 261.197C337.925 262.684 337.979 264.463 337.994 265.987C337.994 266.506 337.987 265.426 337.994 265.987ZM339.343 270.84C339.343 270.679 339.407 270.51 339.21 270.269C339.156 272.617 338.299 274.736 338.196 277.097C339.126 276.006 339.323 272.23 339.343 270.84C339.343 270.676 339.343 270.986 339.343 270.84ZM340.431 256.66C340.544 256.174 340.403 255.846 340.234 255.444C338.969 256.171 339.412 258.524 339.428 259.763C340.426 258.857 340.045 258.332 340.426 256.701C340.452 256.556 340.488 256.458 340.431 256.66ZM286.065 337.167C286.065 337.159 286.065 337.136 286.065 337.136C286.029 337.123 286.021 337.151 286.011 337.187C286.029 337.188 286.044 337.188 286.065 337.167ZM337.51 285.412C337.459 285.517 337.42 285.63 337.369 285.742C337.434 285.645 337.51 285.553 337.51 285.412ZM337.019 286.664C336.581 287.529 336.295 288.441 335.944 289.339C336.346 288.448 336.73 287.59 337.019 286.664Z" fill="#CEE2F2"/>
<path d="M262.679 391.808C260.956 390.633 259.174 372.516 257.953 342.659C257.024 319.857 256.412 290.189 256.412 255.998C256.412 221.809 257.024 192.141 257.953 169.329C259.169 139.236 260.943 121.065 262.643 120.164C264.379 121.068 266.207 139.512 267.412 170.056C267.742 170.092 268.072 170.151 268.395 170.184C268.254 166.518 268.08 162.983 267.932 159.591C265.922 119.212 263.562 119.212 262.679 119.212C261.778 119.212 259.428 119.212 257.436 159.591C257.277 162.717 257.124 165.95 256.991 169.314C255.995 193.67 255.452 223.98 255.452 255.996C255.452 288.009 255.992 318.329 256.991 342.685C257.124 346.046 257.28 349.277 257.436 352.41C259.428 392.786 261.778 392.786 262.679 392.786C263.562 392.786 265.922 392.786 267.932 352.41C268.08 349.021 268.255 345.48 268.395 341.804C268.072 341.855 267.742 341.904 267.412 341.947C266.204 372.219 264.407 390.62 262.679 391.808Z" fill="#34495E"/>
<path d="M345.539 293.778C342.787 291.712 339.871 289.585 336.825 287.401C336.72 287.711 336.6 288.018 336.459 288.335C339.429 290.447 342.273 292.528 344.976 294.551C364.908 309.481 375.619 320.466 373.63 323.914C373.151 324.736 371.902 325.158 369.887 325.158C362.379 325.158 345.838 319.344 324.206 309.496C302.569 299.663 275.853 285.821 248.049 269.772C220.647 253.944 195.308 237.823 175.537 223.674C172.562 221.549 169.723 219.468 167.033 217.451C147.101 202.511 136.385 191.536 138.364 188.09C138.843 187.271 140.092 186.854 142.099 186.854C149.615 186.854 166.16 192.665 187.777 202.501C187.982 202.232 188.171 201.984 188.394 201.728C166.511 191.795 149.723 185.894 142.099 185.894C139.726 185.894 138.195 186.47 137.542 187.602C134.557 192.773 151.617 207.102 166.455 218.22C169.215 220.288 172.118 222.421 175.164 224.594C194.945 238.735 220.217 254.822 247.574 270.595C275.278 286.577 301.93 300.409 323.591 310.267C345.489 320.205 362.275 326.106 369.889 326.106C372.27 326.106 373.801 325.53 374.461 324.391C377.439 319.235 360.376 304.888 345.539 293.778Z" fill="#34495E"/>
<path d="M374.459 187.602C373.791 186.447 372.301 185.894 369.887 185.894C362.274 185.894 345.488 191.795 323.589 201.728C323.814 201.984 324.019 202.23 324.206 202.501C345.838 192.665 362.378 186.854 369.887 186.854C371.902 186.854 373.151 187.271 373.63 188.09C375.617 191.536 364.9 202.508 344.976 217.451C342.273 219.468 339.428 221.55 336.459 223.674C316.696 237.826 291.365 253.943 263.944 269.772C236.142 285.821 209.426 299.663 187.781 309.496C166.164 319.344 149.617 325.158 142.103 325.158C140.093 325.158 138.844 324.736 138.368 323.914C136.381 320.466 147.105 309.481 167.037 294.551C169.728 292.529 172.567 290.447 175.541 288.335C175.408 288.018 175.285 287.71 175.167 287.401C172.123 289.587 169.218 291.715 166.458 293.778C151.618 304.888 134.56 319.235 137.533 324.39C138.204 325.55 139.696 326.105 142.103 326.105C149.727 326.105 166.515 320.204 188.398 310.274C210.061 300.413 236.721 286.584 264.43 270.594C291.778 254.819 317.064 238.717 336.824 224.593C339.87 222.42 342.786 220.287 345.538 218.219C360.376 207.101 377.439 192.773 374.459 187.602Z" fill="#34495E"/>
<path d="M166.835 226.094C171.357 226.094 175.022 222.429 175.022 217.907C175.022 213.385 171.357 209.72 166.835 209.72C162.313 209.72 158.648 213.385 158.648 217.907C158.648 222.429 162.313 226.094 166.835 226.094Z" fill="#FF8E31"/>
<path d="M374.374 200.484C374.374 205.015 370.7 208.681 366.185 208.681C361.654 208.681 358.006 205.015 358.006 200.484C358.006 195.968 361.657 192.305 366.185 192.305C370.703 192.305 374.374 195.968 374.374 200.484Z" fill="#FF8E31"/>
<path d="M266.486 359.718C266.486 364.234 262.82 367.913 258.297 367.913C253.776 367.913 250.118 364.232 250.118 359.718C250.118 355.187 253.776 351.523 258.297 351.523C262.82 351.521 266.486 355.187 266.486 359.718Z" fill="#FF8E31"/>
</svg>
