<svg width="513" height="513" viewBox="0 0 513 513" fill="none" xmlns="http://www.w3.org/2000/svg">
<g clip-path="url(#clip0_2_2)">
<path d="M276 50V30C276 18.998 267.002 10.002 256 10.002C244.999 10.002 236 18.998 236 30V50H276Z" fill="#986E62"/>
<path d="M296 50H276H236H215.999L133 130.582L51.519 209.69L10 250H502L460.48 209.69L379.002 130.582L296 50Z" fill="#BF9A94"/>
<path d="M502 250H10C10 260.001 25.458 280 35.998 280H116H215.997H295.998H395.996H475.996C487.478 280 502 261.562 502 250Z" fill="#986E62"/>
<path d="M116 309.999V280H35.998V309.999H45.998H105.998H116Z" fill="#FF9D21"/>
<path d="M215.997 280V309.999H225.998H285.998H295.998V280H215.997Z" fill="#FF9D21"/>
<path d="M395.996 280V309.999H405.998H465.996H475.996V280H395.996Z" fill="#FF9D21"/>
<path d="M465.998 310H406V432H465.998V310Z" fill="#FFDAAE"/>
<path d="M286 310H226V432H286V310Z" fill="#FFDAAE"/>
<path d="M105.998 310H45.998V432H105.998V310Z" fill="#FFDAAE"/>
<path d="M105.998 431.999H45.998H35.998V461.999H116V431.999H105.998Z" fill="#FF9D21"/>
<path d="M215.997 431.999V461.999H295.998V431.999H285.998H225.998H215.997Z" fill="#FF9D21"/>
<path d="M395.996 431.999V461.999H475.996V431.999H465.996H405.998H395.996Z" fill="#FF9D21"/>
<path d="M475.996 461.999H395.996H295.998H215.997H116H35.998H29.988C19.006 461.999 10 470.997 10 481.998V501.999H502.002V481.998C502.002 470.997 492.994 461.999 481.992 461.999H475.996Z" fill="#986E62"/>
<path d="M485.996 452.275V431.999C485.996 426.477 481.519 421.999 475.996 421.999V319.999C481.519 319.999 485.996 315.521 485.996 309.999V287.616C499.838 281.243 512 263.354 512 250C512 249.976 511.996 249.953 511.996 249.929C511.994 249.728 511.978 249.527 511.965 249.326C511.957 249.194 511.955 249.06 511.942 248.931C511.922 248.758 511.89 248.587 511.862 248.415C511.838 248.262 511.821 248.105 511.79 247.955C511.765 247.838 511.729 247.725 511.7 247.608C511.573 247.091 511.417 246.586 511.213 246.103C511.1 245.835 510.97 245.573 510.832 245.313C510.818 245.287 510.808 245.259 510.794 245.233C510.698 245.056 510.587 244.887 510.48 244.716C510.415 244.612 510.357 244.502 510.287 244.401C510.201 244.273 510.101 244.152 510.01 244.028C509.905 243.888 509.805 243.746 509.694 243.612C509.61 243.51 509.514 243.416 509.426 243.317C509.291 243.168 509.159 243.018 509.018 242.879C509 242.861 508.985 242.842 508.967 242.825L302.968 42.825C301.1 41.014 298.602 40 296 40H286V30C286 13.459 272.542 0.0019989 256 0.0019989C239.458 0.0019989 226 13.459 226 30V40H215.999C213.398 40 210.899 41.014 209.033 42.825L3.033 242.825C3.015 242.842 3.002 242.861 2.984 242.879C2.842 243.018 2.712 243.166 2.579 243.313C2.488 243.414 2.392 243.509 2.306 243.613C2.199 243.742 2.103 243.88 2.001 244.014C1.904 244.143 1.802 244.269 1.712 244.402C1.653 244.487 1.606 244.579 1.55 244.666C1.257 245.13 0.995 245.608 0.786 246.105C0.698 246.311 0.627 246.525 0.554 246.738C0.523 246.83 0.482 246.92 0.453 247.013C0.396 247.195 0.355 247.382 0.309 247.569C0.276 247.698 0.236 247.826 0.209 247.956C0.178 248.104 0.16 248.256 0.137 248.405C0.109 248.581 0.075 248.756 0.057 248.932C0.043 249.061 0.041 249.194 0.032 249.324C0.018 249.526 0.003 249.727 0.002 249.929C0.003 249.953 0 249.976 0 250C0 261.316 12.109 280.495 25.998 287.412V309.999C25.998 315.521 30.475 319.999 35.998 319.999V421.998C30.475 421.998 25.998 426.476 25.998 431.998V452.272C11.344 454.232 0 466.811 0 481.999V502C0 507.522 4.476 512 10 512H502.002C507.524 512 512.002 507.522 512.002 502V481.999C512.002 466.815 500.656 454.239 485.996 452.275ZM305.998 451.999V431.998C305.998 426.476 301.52 421.998 295.998 421.998V319.999C301.52 319.999 305.998 315.521 305.998 309.999V290H385.996V309.999C385.996 315.521 390.473 319.999 395.996 319.999H395.998V421.998H395.996C390.473 421.998 385.996 426.476 385.996 431.998V451.999H305.998ZM126 451.999V431.998C126 426.476 121.522 421.998 116 421.998H115.998V319.999H116C121.522 319.999 126 315.521 126 309.999V290H205.997V309.999C205.997 315.521 210.475 319.999 215.997 319.999H215.998V421.998H215.997C210.475 421.998 205.997 426.476 205.997 431.998V451.999H126ZM106 299.999H45.998V290H106V299.999ZM95.998 319.999V421.998H55.998V319.999H95.998ZM45.998 441.999H106V452H45.998V441.999ZM275.998 319.999V421.998H235.998V319.999H275.998ZM285.998 299.999H225.997V290H285.998V299.999ZM225.997 441.999H285.998V452H225.997V441.999ZM465.996 299.999H405.996V290H465.996V299.999ZM405.996 441.999H465.996V452H405.996V441.999ZM455.996 421.999H415.998V319.999H455.996V421.999ZM246 30C246 24.486 250.486 20.002 256.002 20.002C261.516 20.002 266 24.486 266 30V40H246V30ZM220.055 60H236H276H291.944L435.824 199.689H409.445C403.923 199.689 399.445 204.167 399.445 209.689C399.445 215.211 403.923 219.689 409.445 219.689H456.424L477.344 240H34.655L55.575 219.689H102.554C108.077 219.689 112.554 215.211 112.554 209.689C112.554 204.167 108.077 199.689 102.554 199.689H76.176L220.055 60ZM487.84 260C487.181 260.97 486.445 261.95 485.635 262.919C481.158 268.27 477.208 270 475.996 270H395.996H295.998H215.997H116H36.083C34.892 269.8 30.875 267.515 26.312 261.839C25.812 261.217 25.345 260.603 24.91 260H487.84ZM492.002 491.999H20V481.998C20 476.484 24.48 471.999 29.988 471.999H35.998H116H215.997H295.998H395.996H475.996H481.992C487.512 471.999 492.002 476.484 492.002 481.998V491.999Z" fill="#000001"/>
<path d="M235.998 160.002H246V180.002H216.001C210.479 180.002 206.001 184.48 206.001 190.002C206.001 195.524 210.479 200.002 216.001 200.002H246V209.688C246 215.21 250.476 219.688 256 219.688C261.522 219.688 266 215.21 266 209.688V200.002H276.003C292.543 200.002 306 186.544 306 170.001C306 153.459 292.543 140.002 276.003 140.002H266V120.001H296C301.523 120.001 306 115.523 306 110.001C306 104.479 301.523 100.001 296 100.001H266V90.313C266 84.791 261.522 80.313 256 80.313C250.476 80.313 246 84.791 246 90.313V100.001H235.998C219.457 100.001 205.999 113.459 205.999 130C205.999 146.543 219.457 160.002 235.998 160.002ZM286 170.001C286 175.516 281.516 180.002 276.003 180.002H266V160.002H276.003C281.516 160.002 286 164.488 286 170.001ZM235.998 120.001H246V140.002H235.998C230.484 140.002 225.999 135.516 225.999 130C225.999 124.487 230.484 120.001 235.998 120.001Z" fill="#000001"/>
<path d="M131.285 219.69H131.522C137.044 219.69 141.522 215.212 141.522 209.69C141.522 204.168 137.045 199.69 131.522 199.69H131.285C125.762 199.69 121.285 204.168 121.285 209.69C121.285 215.212 125.762 219.69 131.285 219.69Z" fill="#000001"/>
<path d="M380.48 219.69H380.716C386.238 219.69 390.716 215.212 390.716 209.69C390.716 204.168 386.238 199.69 380.716 199.69H380.48C374.957 199.69 370.48 204.168 370.48 209.69C370.48 215.212 374.957 219.69 380.48 219.69Z" fill="#000001"/>
</g>
<defs>
<clipPath id="clip0_2_2">
<rect width="512.002" height="512.002" fill="white"/>
</clipPath>
</defs>
</svg>
