<svg width="512" height="512" viewBox="0 0 512 512" fill="none" xmlns="http://www.w3.org/2000/svg">
<path d="M130 235.999L116.207 36.001H63.793L52.758 195.999L50 235.999H130Z" fill="#FFDAAE"/>
<path d="M130 235.999H50H10V475.999H169.998V435.997V395.999V356V316V276.001V235.999H130Z" fill="#986E62"/>
<path d="M169.998 235.999V276.001V316V356V395.999V435.997V476H502V236L446.664 196L391.33 155.999V236L336 196L280.666 155.999V236L225.334 196L169.998 155.999V235.999ZM255.998 355.998V315.998H295.998V355.998H255.998ZM375.998 315.998H416V355.998H375.998V315.998Z" fill="#FF9D21"/>
<path d="M296 316H256V356H296V316Z" fill="#96C8EB"/>
<path d="M416 316H376V356H416V316Z" fill="#96C8EB"/>
<path d="M507.857 227.895L397.19 147.894C394.147 145.693 390.125 145.385 386.78 147.093C383.436 148.803 381.331 152.242 381.331 155.998V216.431L286.524 147.894C283.481 145.693 279.46 145.385 276.116 147.093C272.77 148.803 270.667 152.242 270.667 155.998V216.431L175.858 147.894C172.815 145.693 168.794 145.385 165.448 147.093C162.104 148.803 159.999 152.242 159.999 155.998V225.999H139.333L126.184 35.313C125.821 30.069 121.463 26 116.207 26H63.793C58.537 26 54.18 30.068 53.816 35.313L40.666 225.999H10C4.477 225.999 0 230.476 0 235.999V475.999C0 481.521 4.477 485.999 10 485.999H502C507.522 485.999 512 481.521 512 475.999V236C512 232.789 510.459 229.775 507.857 227.895ZM62.094 205.999H83.434C88.955 205.999 93.434 201.521 93.434 195.999C93.434 190.476 88.955 185.999 83.434 185.999H63.473L73.127 46.001H106.873L119.285 225.999H60.715L62.094 205.999ZM20 245.999H49.963C49.975 245.999 49.988 246.001 50 246.001H129.998C130.006 246.002 130.014 246.002 130.018 246.001C130.032 246.001 130.043 245.999 130.057 245.999H159.998V266.001H104.309C98.788 266.001 94.309 270.479 94.309 276.001C94.309 281.523 98.788 286.001 104.309 286.001H159.998V306H104.309C98.788 306 94.309 310.478 94.309 316C94.309 321.523 98.788 326 104.309 326H159.998V346H133.273C127.752 346 123.273 350.478 123.273 356C123.273 361.523 127.752 366 133.273 366H159.998V385.999H104.309C98.788 385.999 94.309 390.477 94.309 395.999C94.309 401.521 98.788 405.999 104.309 405.999H159.998V425.997H104.309C98.788 425.997 94.309 430.475 94.309 435.997C94.309 441.52 98.788 445.997 104.309 445.997H159.998V465.999H20V245.999ZM492 465.999H179.998V235.999V175.566L274.807 244.103C277.85 246.304 281.871 246.615 285.217 244.903C288.561 243.194 290.666 239.755 290.666 235.999V175.566L385.473 244.102C388.516 246.304 392.537 246.612 395.881 244.903C399.227 243.194 401.33 239.755 401.33 235.999V175.566L492 241.109V465.999Z" fill="#000001"/>
<path d="M104.309 366H104.545C110.068 366 114.545 361.523 114.545 356C114.545 350.478 110.068 346 104.545 346H104.309C98.788 346 94.309 350.478 94.309 356C94.309 361.522 98.787 366 104.309 366Z" fill="#000001"/>
<path d="M295.998 305.998H255.996C250.473 305.998 245.996 310.476 245.996 315.998V355.996C245.996 361.518 250.473 365.996 255.996 365.996H295.998C301.52 365.996 305.998 361.518 305.998 355.996V315.998C305.998 310.477 301.52 305.998 295.998 305.998ZM285.998 345.996H265.996V325.998H285.998V345.996Z" fill="#000001"/>
<path d="M365.998 315.998V355.996C365.998 361.518 370.477 365.996 375.998 365.996H416C421.523 365.996 426 361.518 426 355.996V315.998C426 310.476 421.523 305.998 416 305.998H375.998C370.477 305.998 365.998 310.477 365.998 315.998ZM385.998 325.998H406V345.996H385.998V325.998Z" fill="#000001"/>
<path d="M321.69 425.997H321.454C315.933 425.997 311.454 430.475 311.454 435.997C311.454 441.52 315.933 445.997 321.454 445.997H321.69C327.213 445.997 331.69 441.52 331.69 435.997C331.69 430.475 327.213 425.997 321.69 425.997Z" fill="#000001"/>
<path d="M292.723 425.997H255.998C250.475 425.997 245.998 430.475 245.998 435.997C245.998 441.52 250.475 445.997 255.998 445.997H292.723C298.244 445.997 302.723 441.52 302.723 435.997C302.723 430.475 298.244 425.997 292.723 425.997Z" fill="#000001"/>
</svg>
