<svg width="150" height="150" viewBox="0 0 150 150" fill="none" xmlns="http://www.w3.org/2000/svg">
<g clip-path="url(#clip0_48_2)">
<path d="M28.1558 38.0601H69.1441H80.8565H86.7123V14.6373H80.8565H69.1441H28.1558L16.4432 26.3493L28.1558 38.0601Z" fill="#54BA9D"/>
<path d="M121.844 61.483H80.8565H69.1442H63.2877V84.9058H69.1442H80.8565H121.844L133.557 73.195L121.844 61.483Z" fill="#54BA9D"/>
<path d="M80.855 3.02402H69.1436V14.6373H80.855V3.02402Z" fill="#986E62"/>
<path d="M80.855 38.059H69.1436V61.4815H80.855V38.059Z" fill="#986E62"/>
<path d="M80.855 84.907H69.1436V147.071H80.855V84.907Z" fill="#986E62"/>
<path d="M75.0009 26.3493C75.0009 24.7324 73.6901 23.4214 72.073 23.4214H51.2757C49.6588 23.4214 48.3477 24.7324 48.3477 26.3493C48.3477 27.9662 49.6585 29.2772 51.2757 29.2772H72.073C73.6901 29.2772 75.0009 27.9662 75.0009 26.3493Z" fill="#000001"/>
<path d="M42.864 23.4214H42.7948C41.1779 23.4214 39.8669 24.7324 39.8669 26.3493C39.8669 27.9662 41.1776 29.2772 42.7948 29.2772H42.864C44.4808 29.2772 45.7919 27.9662 45.7919 26.3493C45.7919 24.7324 44.4811 23.4214 42.864 23.4214Z" fill="#000001"/>
<path d="M135.627 71.1249L123.914 59.4126C123.365 58.8636 122.62 58.5551 121.844 58.5551H83.7841V40.9878H86.7123C88.3295 40.9878 89.6402 39.6768 89.6402 38.0599V14.6373C89.6402 13.0204 88.3295 11.7094 86.7123 11.7094H83.7841V2.92793C83.7841 1.31133 82.473 0 80.8561 0H69.1438C67.5269 0 66.2159 1.31104 66.2159 2.92793V11.7097H28.1558C27.3797 11.7097 26.6347 12.0182 26.0856 12.5672L14.3727 24.2789C13.8234 24.8279 13.5152 25.5727 13.5152 26.3493C13.5152 27.1257 13.8234 27.8707 14.373 28.4197L26.0856 40.1306C26.6347 40.6796 27.3794 40.9881 28.1558 40.9881H66.2165V58.5554H63.2877C61.6708 58.5554 60.3598 59.8664 60.3598 61.4833V84.9061C60.3598 86.5228 61.6708 87.8341 63.2877 87.8341H66.2165V144.145H36.6354C35.0186 144.145 33.7075 145.456 33.7075 147.073C33.7075 148.69 35.0186 150 36.6354 150H69.1441C69.1538 150 69.1629 149.999 69.1728 149.999H80.8277C80.8371 149.999 80.8462 150 80.8559 150H113.365C114.982 150 116.292 148.689 116.292 147.072C116.292 145.455 114.982 144.144 113.365 144.144H83.7841V87.8338H121.844C122.62 87.8338 123.365 87.5253 123.914 86.9763L135.627 75.2654C136.176 74.7164 136.485 73.9717 136.485 73.1953C136.485 72.4187 136.176 71.6742 135.627 71.1249ZM72.0721 5.85557H77.9285V11.7094H72.0721V5.85557V5.85557ZM20.5837 26.3493L29.3684 17.5652H69.1441H80.8564H83.7847V35.1322H80.8564H69.1441H29.3684L20.5837 26.3493ZM72.0721 40.9878H77.9285V58.5551H72.0721V40.9878V40.9878ZM77.9285 144.143H72.0721V87.8338H77.9285V144.143ZM120.632 81.9779H80.8564H69.1441H66.2153V64.4106H69.1441H80.8564H120.632L129.416 73.195L120.632 81.9779Z" fill="#000001"/>
<path d="M98.7237 70.2674H77.9267C76.3101 70.2674 74.9988 71.5784 74.9988 73.1953C74.9988 74.8119 76.3098 76.1233 77.9267 76.1233H98.7237C100.341 76.1233 101.652 74.8122 101.652 73.1953C101.652 71.5784 100.341 70.2674 98.7237 70.2674Z" fill="#000001"/>
<path d="M107.205 70.2674H107.136C105.519 70.2674 104.208 71.5784 104.208 73.1953C104.208 74.8119 105.519 76.1233 107.136 76.1233H107.205C108.822 76.1233 110.133 74.8122 110.133 73.1953C110.133 71.5784 108.822 70.2674 107.205 70.2674Z" fill="#000001"/>
<path d="M28.2243 144.144H28.1546C26.5371 144.144 25.2267 145.455 25.2267 147.072C25.2267 148.689 26.5371 150 28.1546 150H28.2243C29.8415 150 31.1522 148.689 31.1522 147.072C31.1522 145.455 29.8412 144.144 28.2243 144.144Z" fill="#000001"/>
<path d="M121.845 144.144H121.776C120.159 144.144 118.848 145.455 118.848 147.072C118.848 148.689 120.159 150 121.776 150H121.845C123.462 150 124.773 148.689 124.773 147.072C124.773 145.455 123.462 144.144 121.845 144.144Z" fill="#000001"/>
</g>
<defs>
<clipPath id="clip0_48_2">
<rect width="150" height="150" fill="white"/>
</clipPath>
</defs>
</svg>
