<svg width="195" height="272" viewBox="0 0 195 272" fill="none" xmlns="http://www.w3.org/2000/svg">
<path d="M115.184 236.721C115.184 248.81 110.16 260.352 101.322 268.589C93.2856 260.313 88.7871 249.229 88.7871 237.687L88.7871 63.2585H115.184L115.184 236.721Z" fill="#8A8181" stroke="black" stroke-width="0.5"/>
<path d="M104.925 248.957L104.925 64.024H115.184L115.184 236.802C115.184 248.661 110.329 259.991 101.771 268.166L103.156 262.825C104.331 258.296 104.925 253.636 104.925 248.957Z" fill="#6B6464" stroke="black" stroke-width="0.5"/>
<path d="M105.414 122.149L105.414 122.15L105.422 122.157L112.819 129.047L112.828 129.055L112.837 129.062L118.08 133.08C119.495 134.165 119.84 136.346 118.838 137.854C117.788 139.037 116.086 139.082 114.939 137.954L102.358 125.585L102.352 125.578L102.344 125.572L89.2693 114.519C87.9085 113.369 87.6489 111.191 88.6994 109.739C89.7485 108.288 91.6791 108.15 92.9397 109.435L105.414 122.149Z" fill="#C4C4C4" stroke="black" stroke-width="0.5"/>
<path d="M105.414 122.149L105.414 122.15L105.422 122.157L112.819 129.047L112.828 129.055L112.837 129.062L118.025 133.038C119.388 134.082 119.735 136.152 118.839 137.622L111.769 130.94L111.769 130.94L111.759 130.932L103.696 124.047L88.7769 109.647C89.892 108.324 91.7771 108.25 93.0272 109.524L105.414 122.149Z" fill="#979696" stroke="black" stroke-width="0.5"/>
<path d="M79.9033 115.757V114.861C79.9033 112.237 82.03 110.111 84.6533 110.111L117.791 110.111C120.414 110.111 122.541 112.237 122.541 114.861V116.288C122.541 119.057 120.182 121.239 117.421 121.024L116.852 120.979C116.5 120.952 116.145 120.96 115.794 121.004L112.275 121.444L102.152 121.69C101.759 121.699 101.366 121.66 100.982 121.573L92.4787 119.636C91.8029 119.483 91.1034 119.464 90.4205 119.582L85.4609 120.438C82.5576 120.938 79.9033 118.703 79.9033 115.757Z" fill="#DFB068" stroke="black" stroke-width="0.5"/>
<path d="M111.591 112.003L110.582 110.111H117.791C120.414 110.111 122.541 112.237 122.541 114.861V116.288C122.541 119.057 120.182 121.239 117.421 121.024L116.745 120.971C116.467 120.949 116.187 120.95 115.909 120.973L110.66 121.402L111.329 120.398C111.759 119.753 112.041 119.021 112.155 118.255L112.397 116.62C112.48 116.059 112.472 115.489 112.373 114.931L112.128 113.554C112.032 113.012 111.85 112.488 111.591 112.003Z" fill="#B89053" stroke="black" stroke-width="0.5"/>
<rect x="128.719" y="111.977" width="53.1586" height="77.5956" rx="4.75" transform="rotate(-180 128.719 111.977)" fill="#875D54" stroke="black" stroke-width="0.5"/>
<path d="M117.253 53.6353L115.697 34.3815H124.103C126.727 34.3815 128.853 36.5082 128.853 39.1315L128.853 107.227C128.853 109.85 126.727 111.977 124.103 111.977H115.697L117.253 93.3156L117.254 93.3085L117.254 93.3014L117.78 73.1859L117.78 73.1859L117.78 73.1726L117.254 53.6487L117.254 53.6487L117.253 53.6353Z" fill="#61443D" stroke="black" stroke-width="0.5"/>
<path d="M95.6988 16.5607L108.681 16.5607V34.4336L95.7327 34.4336V30.0904V30.0722L95.7301 30.0542L95.0603 25.479V23.2006V20.9222L95.6988 16.5607Z" fill="#DFAF68" stroke="black" stroke-width="0.5"/>
<path d="M106.037 21.7159L105.21 18.0918H108.681V34.4336H105.21L106.037 30.8094L106.04 30.7942L106.042 30.7787L106.49 26.2875L106.493 26.2627L106.49 26.2379L106.042 21.7467L106.04 21.7312L106.037 21.7159Z" fill="#B89053" stroke="black" stroke-width="0.5"/>
<path d="M88.7586 1.24999H88.7657L88.7728 1.24959L102.207 0.484875L115.641 1.24959L115.648 1.24999H115.655H120.969C125.249 1.24999 128.719 4.71978 128.719 8.99999V11.9322C128.719 16.2125 125.249 19.6823 120.969 19.6823L83.3103 19.6823C79.0301 19.6823 75.5603 16.2125 75.5603 11.9323V8.99999C75.5603 4.71979 79.0301 1.24999 83.3103 1.24999L88.7586 1.24999Z" fill="#875D54" stroke="black" stroke-width="0.5"/>
<path d="M121.103 19.6823H115.865L117.005 17.759C117.51 16.9072 117.857 15.9715 118.03 14.9966L118.565 11.9883C118.745 10.9807 118.735 9.94855 118.536 8.94457L117.99 6.17905C117.843 5.43591 117.595 4.71653 117.251 4.04119L115.833 1.24999H121.103C125.384 1.24999 128.853 4.71978 128.853 8.99999V11.9322C128.853 16.2125 125.384 19.6823 121.103 19.6823Z" fill="#61443D" stroke="black" stroke-width="0.5"/>
<rect x="83.0597" y="48.0807" width="1.86653" height="7.91704" rx="0.75" transform="rotate(-90 83.0597 48.0807)" fill="#8A8181" stroke="black" stroke-width="0.5"/>
<path d="M89.877 47.0458L89.5072 46.2141H90.2267C90.6409 46.2141 90.9767 46.5499 90.9767 46.9641V47.3307C90.9767 47.7449 90.6409 48.0807 90.2267 48.0807H89.5072L89.877 47.249L89.9221 47.1474L89.877 47.0458Z" fill="#6B6464" stroke="black" stroke-width="0.5"/>
<rect x="83.0597" y="52.8137" width="1.86653" height="7.91704" rx="0.75" transform="rotate(-90 83.0597 52.8137)" fill="#8A8181" stroke="black" stroke-width="0.5"/>
<path d="M89.877 51.7789L89.5072 50.9472H90.2267C90.6409 50.9472 90.9767 51.283 90.9767 51.6972V52.0637C90.9767 52.4779 90.6409 52.8137 90.2267 52.8137H89.5072L89.877 51.982L89.9221 51.8805L89.877 51.7789Z" fill="#6B6464" stroke="black" stroke-width="0.5"/>
<rect x="83.0597" y="57.5468" width="1.86653" height="7.91704" rx="0.75" transform="rotate(-90 83.0597 57.5468)" fill="#8A8181" stroke="black" stroke-width="0.5"/>
<path d="M89.877 56.512L89.5072 55.6803H90.2267C90.6409 55.6803 90.9767 56.016 90.9767 56.4303V56.7968C90.9767 57.211 90.6409 57.5468 90.2267 57.5468H89.5072L89.877 56.7151L89.9221 56.6135L89.877 56.512Z" fill="#6B6464" stroke="black" stroke-width="0.5"/>
<path d="M82.0076 102.944V102.578C82.0076 102.163 82.3434 101.828 82.7576 101.828H122.843C123.257 101.828 123.593 102.163 123.593 102.578V102.944C123.593 103.358 123.257 103.694 122.843 103.694H82.7576C82.3434 103.694 82.0076 103.358 82.0076 102.944Z" fill="#8A8181" stroke="black" stroke-width="0.5"/>
<path d="M116.18 102.659L115.81 101.828H122.843C123.257 101.828 123.593 102.163 123.593 102.578V102.944C123.593 103.358 123.257 103.694 122.843 103.694H115.81L116.18 102.862L116.225 102.761L116.18 102.659Z" fill="#6B6464" stroke="black" stroke-width="0.5"/>
<path d="M104.738 139.753L104.746 139.762L104.756 139.77L118.58 151.462C119.742 152.444 119.968 154.282 119.08 155.528C118.256 156.687 116.757 156.925 115.638 156.076L109.737 151.597L109.734 151.594L101.005 144.714L88.1238 132.537C86.7852 131.272 86.5843 129.066 87.6726 127.584C88.7879 126.065 90.826 125.887 92.193 127.19L97.3447 132.101L104.738 139.753Z" fill="#C4C4C4" stroke="black" stroke-width="0.5"/>
<path d="M103.027 142.423L87.7763 127.457C88.9418 126.08 90.91 125.967 92.2485 127.243L97.3447 132.101L104.738 139.753L104.746 139.762L104.756 139.77L118.033 150.999C119.425 152.176 119.729 154.341 118.76 155.875L103.027 142.423Z" fill="#979696" stroke="black" stroke-width="0.5"/>
<path d="M92.9519 156.981L92.9413 156.969L92.9294 156.958L87.3222 151.988C85.8684 150.7 85.593 148.296 86.7158 146.696C87.8395 145.095 89.912 144.943 91.2765 146.361L104.073 159.663L104.073 159.664L111.604 167.523C111.972 167.907 112.366 168.254 112.782 168.562L117.657 172.169C119.267 173.36 119.653 175.892 118.481 177.563C117.423 179.069 115.498 179.283 114.146 178.044L100.339 165.391L92.9519 156.981Z" fill="#C4C4C4" stroke="black" stroke-width="0.5"/>
<path d="M118 172.423C119.369 173.436 119.741 175.543 118.851 177.022L114.065 173.458C111.64 171.651 109.378 169.557 107.317 167.211L103.038 162.34L103.032 162.333L103.026 162.327L86.9489 146.379C88.0522 145.03 89.9226 144.954 91.1728 146.253L104.073 159.663L104.073 159.664L111.604 167.523C111.972 167.907 112.366 168.254 112.782 168.562L118 172.423Z" fill="#979696" stroke="black" stroke-width="0.5"/>
<path d="M109.093 191.433L109.091 191.431L104.415 186.107C102.595 184.035 100.618 182.156 98.5098 180.494L92.9195 176.088L92.9195 176.088L92.9179 176.087L87.5894 171.96C86.0274 170.75 85.6747 168.272 86.831 166.633C87.9082 165.105 89.8773 164.914 91.2291 166.204L118.261 192.011C119.613 193.302 119.836 195.587 118.758 197.115C117.602 198.754 115.445 198.836 114.119 197.291L109.093 191.433Z" fill="#C4C4C4" stroke="black" stroke-width="0.5"/>
<path d="M103.704 180.705L103.696 180.697L103.688 180.69L94.9465 173.034L94.9466 173.034L94.9374 173.027L86.8594 166.61C88.04 165.177 90.0213 165.051 91.4014 166.369L118.09 191.847C119.47 193.165 119.75 195.451 118.772 197.077L111.78 189.134L111.78 189.134L111.773 189.126L103.704 180.705Z" fill="#979696" stroke="black" stroke-width="0.5"/>
<path d="M100.327 203.657L100.318 203.649L100.31 203.642L91.5794 196.761L85.9934 191.207C84.6674 189.889 84.446 187.573 85.4983 186.028C86.6516 184.336 88.8231 184.296 90.1174 185.943L94.7471 191.837C95.1378 192.334 95.5638 192.79 96.02 193.199L117.021 212.021C118.296 213.164 118.549 215.317 117.577 216.744C116.445 218.405 114.26 218.25 113.199 216.434L112.786 215.728C112.568 215.355 112.306 215.022 112.008 214.74L100.327 203.657Z" fill="#C4C4C4" stroke="black" stroke-width="0.5"/>
<path d="M85.7956 185.609C86.8967 184.236 88.7923 184.273 89.9358 185.743L94.1216 191.124C94.4805 191.586 94.8725 192.009 95.2928 192.388L116.698 211.713C118.088 212.969 118.409 215.276 117.459 216.902L85.7956 185.609Z" fill="#979696" stroke="black" stroke-width="0.5"/>
<path d="M107.063 229.698L107.055 229.69L107.048 229.683L98.3091 221.265L91.5877 214.378L91.5766 214.366L91.5645 214.357L87.558 211.178C86.0175 209.956 85.6437 207.401 86.7599 205.722C87.7873 204.177 89.6771 203.995 90.9808 205.315L116.715 231.379C118.093 232.774 118.169 235.3 116.875 236.686C115.799 237.837 114.153 237.771 113.064 236.531L107.063 229.698Z" fill="#C4C4C4" stroke="black" stroke-width="0.5"/>
<path d="M109.449 223.961L109.456 223.971L109.465 223.979L117.048 231.701C118.11 232.783 118.073 234.748 117.014 235.675L99.6626 216.68L99.6525 216.669L99.6415 216.66L86.8594 205.589C87.9771 204.139 89.8353 203.916 91.2507 205.105L98.9721 211.591C99.6893 212.194 100.361 212.876 100.978 213.629L109.449 223.961Z" fill="#979696" stroke="black" stroke-width="0.5"/>
<path d="M99.1504 239.803L99.1506 239.802L99.1415 239.794L86.5177 227.621C85.8173 226.945 85.6283 225.782 86.074 224.89C86.6066 223.825 87.8207 223.569 88.6808 224.34L101.358 235.706L109.951 244.777C110.23 245.072 110.538 245.326 110.866 245.535L112.772 246.748C114.214 247.666 114.568 249.918 113.486 251.292C112.588 252.434 111.054 252.485 110.042 251.407L99.1504 239.803Z" fill="#C4C4C4" stroke="black" stroke-width="0.5"/>
<path d="M113.15 246.47C114.679 247.108 115.033 249.445 113.833 250.578L86.6779 224.157C87.8774 223.47 89.3455 223.693 90.4076 224.755L110.934 245.281C111.234 245.582 111.579 245.816 111.948 245.97L113.15 246.47Z" fill="#979696" stroke="black" stroke-width="0.5"/>
<path d="M96.3022 253.426L96.2969 253.421L96.2914 253.416L90.2397 248.057L90.2332 248.051L90.2263 248.046L86.8075 245.427C85.5598 244.471 85.2718 242.492 86.1902 241.183C87.0412 239.971 88.5978 239.819 89.6668 240.845L108.036 258.468C109.094 259.483 109.269 261.279 108.426 262.48C107.507 263.79 105.782 263.829 104.753 262.563L101.7 258.805L101.691 258.794L101.682 258.785L96.3022 253.426Z" fill="#C4C4C4" stroke="black" stroke-width="0.5"/>
<path d="M84.2329 7.52684L118.691 7.37859C119.292 7.37601 119.878 7.5559 120.374 7.89441C121.682 8.78807 122.055 10.5534 121.219 11.8996L120.889 12.4325C120.229 13.4953 119.067 14.1417 117.816 14.1417L84.2471 14.1417C82.4204 14.1417 80.9397 12.6609 80.9397 10.8342C80.9397 9.01315 82.4118 7.53468 84.2329 7.52684Z" fill="#61443D" stroke="black" stroke-width="0.5"/>
<path d="M89.7153 240.891L107.968 258.403C109.003 259.396 109.222 261.11 108.508 262.344L86.3033 241.041C87.1995 239.982 88.6803 239.898 89.7153 240.891Z" fill="#979696" stroke="black" stroke-width="0.5"/>
</svg>
