<svg width="146" height="165" viewBox="0 0 146 165" fill="none" xmlns="http://www.w3.org/2000/svg">
<rect x="62" y="18" width="24" height="147" rx="12" fill="#795548"/>
<path d="M75 18H84V156.5C84 159.538 81.5376 162 78.5 162H75V18Z" fill="#4F372E"/>
<rect x="64.5" y="20.5" width="19" height="142" rx="9.5" stroke="black" stroke-width="5"/>
<path d="M145.5 48.5C146.151 42.6409 145.438 37.2339 139.025 30.2176C121.752 15.9919 98.3248 8 73.8974 8C49.47 8 26.043 15.9919 8.77025 30.2176C0.666049 36.8921 -0.648529 43.1545 0.239331 50C8 51 11.5 45.2716 18.4371 41.2178C32.5 33 56.0625 28.472 73.8974 28.472C91.7323 28.472 116.251 30.8314 128.862 41.2178C132.851 44.5031 138.5 49.5 145.5 48.5Z" fill="#795548"/>
<path d="M141 45C141.514 42.3567 131 32.986 126 29.5C113.5 22.5 94.6103 18 75.3291 18C56.0479 18 38.1338 22.5822 24.4999 29C18.1031 32.0112 3.79914 43.4117 4.49995 46.5C10.6256 46.9511 26.0772 34.8149 31.5528 32.986C42.6531 29.2786 61.2515 27.2358 75.3291 27.2358C89.4066 27.2358 108.76 28.3002 118.714 32.986C121.863 34.4681 135.475 45.4511 141 45Z" fill="#4F372E"/>
<path d="M73.8974 10.5C97.7365 10.5 120.527 18.2823 137.297 32.0342C140.239 35.2805 141.764 38.0288 142.519 40.5187C143.083 42.3765 143.251 44.1935 143.178 46.1177C141.12 46.0194 139.157 45.3221 137.259 44.2762C134.943 43.0006 132.9 41.3115 130.995 39.7366C130.813 39.5859 130.632 39.4362 130.452 39.2881C123.663 33.6966 113.887 30.4098 103.806 28.4939C93.6642 26.5667 82.9078 25.972 73.8974 25.972C55.8045 25.972 31.7547 30.5399 17.1758 39.0594C15.3037 40.1533 13.6851 41.3479 12.2382 42.4562C11.921 42.6992 11.6156 42.9351 11.3191 43.1642C10.2265 44.0082 9.25468 44.759 8.2573 45.426C6.39446 46.6718 4.64945 47.4816 2.52741 47.6C2.4091 45.2487 2.66406 43.064 3.47126 40.9287C4.51167 38.1764 6.55557 35.2803 10.3596 32.1474C27.1427 18.3249 49.993 10.5 73.8974 10.5Z" stroke="black" stroke-width="5"/>
<rect x="56" width="36" height="40" rx="9" fill="#FEC108"/>
<path d="M79 3H89V37H79V3Z" fill="#DBA709"/>
<rect x="58.5" y="2.5" width="31" height="35" rx="6.5" stroke="black" stroke-width="5"/>
</svg>
