<svg width="98" height="96" viewBox="0 0 98 96" fill="none" xmlns="http://www.w3.org/2000/svg">
<g filter="url(#filter0_d_24_13)">
<mask id="path-1-inside-1_24_13" fill="white">
<path d="M82 42C82 36.6158 81.1594 31.2843 79.5261 26.31C77.8928 21.3356 75.4989 16.8158 72.481 13.0086C69.4631 9.20142 65.8803 6.18138 61.9372 4.12094C57.9941 2.0605 53.768 1 49.5 1C45.232 1 41.0059 2.0605 37.0628 4.12094C33.1197 6.18138 29.5369 9.20142 26.519 13.0086C23.5011 16.8158 21.1072 21.3356 19.4739 26.31C17.8406 31.2843 17 36.6158 17 42L22.6171 42C22.6171 37.5464 23.3124 33.1364 24.6634 29.0218C26.0144 24.9071 27.9946 21.1685 30.4909 18.0193C32.9872 14.8701 35.9508 12.3721 39.2124 10.6677C42.4739 8.9634 45.9697 8.08619 49.5 8.08619C53.0303 8.08619 56.5261 8.9634 59.7876 10.6677C63.0492 12.3721 66.0128 14.8701 68.5091 18.0193C71.0054 21.1685 72.9856 24.9071 74.3366 29.0217C75.6875 33.1364 76.3829 37.5464 76.3829 42H82Z"/>
</mask>
<path d="M82 42C82 36.6158 81.1594 31.2843 79.5261 26.31C77.8928 21.3356 75.4989 16.8158 72.481 13.0086C69.4631 9.20142 65.8803 6.18138 61.9372 4.12094C57.9941 2.0605 53.768 1 49.5 1C45.232 1 41.0059 2.0605 37.0628 4.12094C33.1197 6.18138 29.5369 9.20142 26.519 13.0086C23.5011 16.8158 21.1072 21.3356 19.4739 26.31C17.8406 31.2843 17 36.6158 17 42L22.6171 42C22.6171 37.5464 23.3124 33.1364 24.6634 29.0218C26.0144 24.9071 27.9946 21.1685 30.4909 18.0193C32.9872 14.8701 35.9508 12.3721 39.2124 10.6677C42.4739 8.9634 45.9697 8.08619 49.5 8.08619C53.0303 8.08619 56.5261 8.9634 59.7876 10.6677C63.0492 12.3721 66.0128 14.8701 68.5091 18.0193C71.0054 21.1685 72.9856 24.9071 74.3366 29.0217C75.6875 33.1364 76.3829 37.5464 76.3829 42H82Z" fill="#5B5B5B"/>
<path d="M82 42C82 36.6158 81.1594 31.2843 79.5261 26.31C77.8928 21.3356 75.4989 16.8158 72.481 13.0086C69.4631 9.20142 65.8803 6.18138 61.9372 4.12094C57.9941 2.0605 53.768 1 49.5 1C45.232 1 41.0059 2.0605 37.0628 4.12094C33.1197 6.18138 29.5369 9.20142 26.519 13.0086C23.5011 16.8158 21.1072 21.3356 19.4739 26.31C17.8406 31.2843 17 36.6158 17 42L22.6171 42C22.6171 37.5464 23.3124 33.1364 24.6634 29.0218C26.0144 24.9071 27.9946 21.1685 30.4909 18.0193C32.9872 14.8701 35.9508 12.3721 39.2124 10.6677C42.4739 8.9634 45.9697 8.08619 49.5 8.08619C53.0303 8.08619 56.5261 8.9634 59.7876 10.6677C63.0492 12.3721 66.0128 14.8701 68.5091 18.0193C71.0054 21.1685 72.9856 24.9071 74.3366 29.0217C75.6875 33.1364 76.3829 37.5464 76.3829 42H82Z" stroke="black" mask="url(#path-1-inside-1_24_13)"/>
</g>
<mask id="path-2-inside-2_24_13" fill="white">
<path d="M83 41C83 35.6158 82.1335 30.2843 80.45 25.31C78.7664 20.3356 76.2988 15.8158 73.1881 12.0086C70.0773 8.20142 66.3843 5.18138 62.3199 3.12094C58.2555 1.0605 53.8993 -2.35351e-07 49.5 0C45.1007 2.35351e-07 40.7445 1.0605 36.6801 3.12094C32.6157 5.18138 28.9227 8.20142 25.8119 12.0086C22.7012 15.8158 20.2336 20.3356 18.55 25.31C16.8665 30.2843 16 35.6158 16 41L20.1162 41C20.1162 36.2774 20.8762 31.601 22.3529 27.2378C23.8296 22.8747 25.994 18.9102 28.7225 15.5708C31.451 12.2314 34.6903 9.58245 38.2553 7.77518C41.8203 5.9679 45.6413 5.03771 49.5 5.03771C53.3587 5.03771 57.1797 5.9679 60.7447 7.77518C64.3097 9.58245 67.549 12.2314 70.2775 15.5708C73.006 18.9102 75.1704 22.8747 76.6471 27.2378C78.1238 31.601 78.8838 36.2774 78.8838 41H83Z"/>
</mask>
<path d="M83 41C83 35.6158 82.1335 30.2843 80.45 25.31C78.7664 20.3356 76.2988 15.8158 73.1881 12.0086C70.0773 8.20142 66.3843 5.18138 62.3199 3.12094C58.2555 1.0605 53.8993 -2.35351e-07 49.5 0C45.1007 2.35351e-07 40.7445 1.0605 36.6801 3.12094C32.6157 5.18138 28.9227 8.20142 25.8119 12.0086C22.7012 15.8158 20.2336 20.3356 18.55 25.31C16.8665 30.2843 16 35.6158 16 41L20.1162 41C20.1162 36.2774 20.8762 31.601 22.3529 27.2378C23.8296 22.8747 25.994 18.9102 28.7225 15.5708C31.451 12.2314 34.6903 9.58245 38.2553 7.77518C41.8203 5.9679 45.6413 5.03771 49.5 5.03771C53.3587 5.03771 57.1797 5.9679 60.7447 7.77518C64.3097 9.58245 67.549 12.2314 70.2775 15.5708C73.006 18.9102 75.1704 22.8747 76.6471 27.2378C78.1238 31.601 78.8838 36.2774 78.8838 41H83Z" fill="#AEA5A5" stroke="black" mask="url(#path-2-inside-2_24_13)"/>
<g filter="url(#filter1_d_24_13)">
<rect x="4" y="28" width="90" height="60" rx="5" fill="#AEA5A5"/>
<rect x="4.25" y="28.25" width="89.5" height="59.5" rx="4.75" stroke="black" stroke-width="0.5"/>
</g>
<path d="M84.0826 71.736L93.75 68.3524V83C93.75 85.6234 91.6234 87.75 89 87.75H9C6.37665 87.75 4.25 85.6234 4.25 83V68.3524L13.9174 71.736L13.933 71.7414L13.9491 71.7448L25.9704 74.2448L25.9802 74.2468L25.9902 74.2481L37.9689 75.7481L37.9792 75.7493L37.9896 75.7498L49.947 76.2498L49.9576 76.2502L49.9683 76.2498L61.5108 75.7498L61.5217 75.7493L61.5325 75.7479L72.9687 74.2479L72.9801 74.2464L72.9913 74.2439L84.0551 71.7439L84.0691 71.7407L84.0826 71.736Z" fill="#857979" stroke="black" stroke-width="0.5"/>
<rect x="46.3777" y="52.25" width="7.15957" height="23.5" rx="3.57979" fill="#5B5B5B" stroke="black" stroke-width="0.5"/>
<path d="M59.2819 52C59.2819 57.3951 55.0971 61.75 49.9574 61.75C44.8178 61.75 40.633 57.3951 40.633 52C40.633 46.6049 44.8178 42.25 49.9574 42.25C55.0971 42.25 59.2819 46.6049 59.2819 52Z" fill="#5B5B5B" stroke="black" stroke-width="0.5"/>
<g filter="url(#filter2_f_24_13)">
<rect x="48.0426" y="50" width="3.82979" height="24" rx="1.91489" fill="#4B4B4B"/>
</g>
<g filter="url(#filter3_f_24_13)">
<ellipse cx="49.9574" cy="52" rx="3.82979" ry="4" fill="#4B4B4B"/>
</g>
<defs>
<filter id="filter0_d_24_13" x="13" y="1" width="73" height="49" filterUnits="userSpaceOnUse" color-interpolation-filters="sRGB">
<feFlood flood-opacity="0" result="BackgroundImageFix"/>
<feColorMatrix in="SourceAlpha" type="matrix" values="0 0 0 0 0 0 0 0 0 0 0 0 0 0 0 0 0 0 127 0" result="hardAlpha"/>
<feOffset dy="4"/>
<feGaussianBlur stdDeviation="2"/>
<feComposite in2="hardAlpha" operator="out"/>
<feColorMatrix type="matrix" values="0 0 0 0 0 0 0 0 0 0 0 0 0 0 0 0 0 0 0.25 0"/>
<feBlend mode="normal" in2="BackgroundImageFix" result="effect1_dropShadow_24_13"/>
<feBlend mode="normal" in="SourceGraphic" in2="effect1_dropShadow_24_13" result="shape"/>
</filter>
<filter id="filter1_d_24_13" x="0" y="28" width="98" height="68" filterUnits="userSpaceOnUse" color-interpolation-filters="sRGB">
<feFlood flood-opacity="0" result="BackgroundImageFix"/>
<feColorMatrix in="SourceAlpha" type="matrix" values="0 0 0 0 0 0 0 0 0 0 0 0 0 0 0 0 0 0 127 0" result="hardAlpha"/>
<feOffset dy="4"/>
<feGaussianBlur stdDeviation="2"/>
<feComposite in2="hardAlpha" operator="out"/>
<feColorMatrix type="matrix" values="0 0 0 0 0 0 0 0 0 0 0 0 0 0 0 0 0 0 0.25 0"/>
<feBlend mode="normal" in2="BackgroundImageFix" result="effect1_dropShadow_24_13"/>
<feBlend mode="normal" in="SourceGraphic" in2="effect1_dropShadow_24_13" result="shape"/>
</filter>
<filter id="filter2_f_24_13" x="47.0426" y="49" width="5.82977" height="26" filterUnits="userSpaceOnUse" color-interpolation-filters="sRGB">
<feFlood flood-opacity="0" result="BackgroundImageFix"/>
<feBlend mode="normal" in="SourceGraphic" in2="BackgroundImageFix" result="shape"/>
<feGaussianBlur stdDeviation="0.5" result="effect1_foregroundBlur_24_13"/>
</filter>
<filter id="filter3_f_24_13" x="45.1277" y="47" width="9.65958" height="10" filterUnits="userSpaceOnUse" color-interpolation-filters="sRGB">
<feFlood flood-opacity="0" result="BackgroundImageFix"/>
<feBlend mode="normal" in="SourceGraphic" in2="BackgroundImageFix" result="shape"/>
<feGaussianBlur stdDeviation="0.5" result="effect1_foregroundBlur_24_13"/>
</filter>
</defs>
</svg>
